<svg version="1.1" xmlns="http://www.w3.org/2000/svg" xmlns:xlink="http://www.w3.org/1999/xlink" width="720" height="540" viewBox="0,0,720,540"><defs><clipPath id="clip-1"><path d="M-120,450v-540h720v540z" fill="none" fill-rule="nonzero" stroke="none" stroke-width="1" stroke-linecap="butt"/></clipPath></defs><g transform="translate(120,90)"><g clip-path="url(#clip-1)" data-paper-data="{&quot;isPaintingLayer&quot;:true}" stroke-linejoin="miter" stroke-miterlimit="10" stroke-dasharray="" stroke-dashoffset="0" style="mix-blend-mode: normal"><path d="M-240,-180h960v720h-960z" fill-opacity="0" fill="#000000" fill-rule="evenodd" stroke="none" stroke-width="1" stroke-linecap="square"/><path d="M239.98099,188.89191c-1.11585,0 -2.07953,-0.35504 -2.89108,-1.06512c-0.79884,-0.71008 -1.40749,-1.72449 -1.82593,-3.04322c-0.40577,-1.33142 -0.60865,-2.92911 -0.60865,-4.79308c0,-1.83863 0.20288,-3.42362 0.60865,-4.75504c0.41844,-1.33142 1.02709,-2.35215 1.82593,-3.06225c0.81152,-0.71008 1.77522,-1.06512 2.89108,-1.06512c1.15389,0 2.12391,0.36139 2.91009,1.08415c0.79885,0.72277 1.40749,1.74986 1.82593,3.08128c0.41844,1.33142 0.62766,2.90374 0.62766,4.71701c0,1.85129 -0.20922,3.44264 -0.62766,4.77406c-0.41844,1.31872 -1.02708,2.33949 -1.82593,3.06225c-0.78618,0.71008 -1.7562,1.06512 -2.91009,1.06512zM239.98099,187.12303c0.82421,0 1.49625,-0.30433 2.01613,-0.91298c0.53257,-0.62132 0.92565,-1.46455 1.17925,-2.52969c0.26627,-1.07781 0.39942,-2.30777 0.39942,-3.68992c0,-1.36945 -0.13315,-2.58674 -0.39942,-3.65187c-0.26627,-1.06512 -0.6657,-1.90835 -1.19827,-2.52969c-0.51988,-0.62132 -1.1856,-0.932 -1.99711,-0.932c-0.79885,0 -1.45822,0.31066 -1.9781,0.932c-0.51988,0.60865 -0.91298,1.45187 -1.17925,2.52969c-0.26627,1.06512 -0.39942,2.28243 -0.39942,3.65187c0,1.39481 0.13315,2.62478 0.39942,3.68992c0.26627,1.06512 0.65938,1.90835 1.17925,2.52969c0.51988,0.60865 1.17925,0.91298 1.9781,0.91298z" fill="#000000" fill-rule="nonzero" stroke="#000000" stroke-width="2" stroke-linecap="square"/></g></g></svg>