<svg version="1.1" xmlns="http://www.w3.org/2000/svg" xmlns:xlink="http://www.w3.org/1999/xlink" width="84.61763" height="137.45713" viewBox="0,0,84.61763,137.45713"><g transform="translate(-197.69119,-111.27144)"><g data-paper-data="{&quot;isPaintingLayer&quot;:true}" fill="#000000" fill-rule="nonzero" stroke="#000000" stroke-width="5.5" stroke-linecap="square" stroke-linejoin="miter" stroke-miterlimit="10" stroke-dasharray="" stroke-dashoffset="0" style="mix-blend-mode: normal"><path d="M207.92922,245.97857c-1.78955,0 -3.34362,-0.61226 -4.66229,-1.8367c-1.22444,-1.22444 -1.8367,-2.82566 -1.8367,-4.8036c0,-1.60122 0.61226,-3.10822 1.8367,-4.52098l51.14396,-60.3273c2.82566,-3.01406 5.039,-6.40476 6.64023,-10.17231c1.69538,-3.76748 2.54304,-7.29956 2.54304,-10.5961c0,-5.27455 -1.03605,-9.93684 -3.10822,-13.98687c-2.0721,-4.05004 -4.99199,-7.20533 -8.75948,-9.46589c-3.76748,-2.35465 -8.05306,-3.53201 -12.85666,-3.53201c-4.70937,0 -9.04203,1.22444 -12.9979,3.67332c-3.86171,2.35465 -6.8757,5.5571 -9.04203,9.60713c-2.16633,4.05004 -3.24946,8.61817 -3.24946,13.70432c0,1.78955 -0.65927,3.29661 -1.97794,4.52098c-1.22444,1.22444 -2.77851,1.8367 -4.66229,1.8367c-1.78955,0 -3.34362,-0.61226 -4.66229,-1.8367c-1.22444,-1.22444 -1.8367,-2.73143 -1.8367,-4.52098c0,-7.53504 1.6483,-14.26943 4.94484,-20.20331c3.39077,-6.02797 7.9589,-10.7845 13.70432,-14.26943c5.83965,-3.48493 12.4328,-5.2274 19.77944,-5.2274c7.25248,0 13.70432,1.69538 19.35558,5.08615c5.74542,3.39077 10.21939,8.05306 13.42177,13.98687c3.20238,5.93381 4.8036,12.80951 4.8036,20.6271c0,3.67332 -0.61226,7.20533 -1.8367,10.5961c-1.13028,3.39077 -2.73143,6.64023 -4.8036,9.74845c-1.97794,3.10822 -4.14427,5.98096 -6.49899,8.61817l-43.23221,50.15499h52.83935c1.78955,0 3.34362,0.70642 4.66229,2.11925c1.31867,1.31867 1.97794,2.77851 1.97794,4.37974c0,1.97794 -0.65927,3.57916 -1.97794,4.8036c-1.31867,1.22444 -2.87275,1.8367 -4.66229,1.8367z"/></g></g></svg>