<svg version="1.1" xmlns="http://www.w3.org/2000/svg" xmlns:xlink="http://www.w3.org/1999/xlink" width="12.72985" height="19.89863" viewBox="0.25,0.25,12.72985,19.89863"><g transform="translate(-234.32838,-170.55071)"><g data-paper-data="{&quot;isPaintingLayer&quot;:true}" fill="#000000" fill-rule="nonzero" stroke="#000000" stroke-width="1" stroke-linecap="square" stroke-linejoin="miter" stroke-miterlimit="10" stroke-dasharray="" stroke-dashoffset="0" style="mix-blend-mode: normal"><path d="M240.75,171.30072c1.09381,0 2.06609,0.24982 2.91683,0.74946c0.86424,0.48614 1.53944,1.15458 2.02558,2.00532c0.48614,0.85074 0.72921,1.82977 0.72921,2.93709c0,1.08031 -0.24307,2.05259 -0.72921,2.91683c-0.48614,0.85074 -1.16133,1.52594 -2.02558,2.02558c-0.85074,0.48614 -1.82302,0.72921 -2.91683,0.72921c-1.08031,0 -2.05259,-0.24307 -2.91683,-0.72921c-0.85074,-0.49964 -1.52594,-1.17483 -2.02558,-2.02558c-0.48614,-0.86424 -0.72921,-1.83652 -0.72921,-2.91683c0,-1.10731 0.24307,-2.08634 0.72921,-2.93709c0.49964,-0.85074 1.17483,-1.51918 2.02558,-2.00532c0.86424,-0.49964 1.83652,-0.74946 2.91683,-0.74946zM240.77026,173.04272c-0.74271,0 -1.41115,0.1688 -2.00532,0.50639c-0.58066,0.33759 -1.0398,0.80348 -1.37739,1.39765c-0.33759,0.59417 -0.50639,1.27611 -0.50639,2.04583c0,0.75622 0.1688,1.43141 0.50639,2.02558c0.33759,0.59417 0.79673,1.0668 1.37739,1.4179c0.59417,0.33759 1.26261,0.50639 2.00532,0.50639c0.74271,0 1.4044,-0.1688 1.98507,-0.50639c0.58066,-0.3511 1.0398,-0.82373 1.37739,-1.4179c0.33759,-0.59417 0.50639,-1.26936 0.50639,-2.02558c0,-0.76972 -0.1688,-1.45166 -0.50639,-2.04583c-0.33759,-0.59417 -0.79673,-1.06005 -1.37739,-1.39765c-0.58066,-0.33759 -1.24236,-0.50639 -1.98507,-0.50639zM245.73292,179.86891l-5.97545,9.80379c-0.21606,0.3511 -0.49964,0.52665 -0.85074,0.52665c-0.24307,0 -0.45238,-0.07427 -0.62793,-0.22281c-0.17555,-0.14854 -0.28358,-0.33085 -0.32409,-0.54691c-0.04051,-0.22957 0,-0.45238 0.12153,-0.66844l3.99039,-6.5021z"/></g></g></svg>