<svg version="1.1" xmlns="http://www.w3.org/2000/svg" xmlns:xlink="http://www.w3.org/1999/xlink" width="155.7354" height="138.00126" viewBox="0,0,155.7354,138.00126"><defs><linearGradient x1="240.625" y1="112.875" x2="240.625" y2="131.125" gradientUnits="userSpaceOnUse" id="color-1"><stop offset="0" stop-color="#00d25b"/><stop offset="1" stop-color="#00ff6d"/></linearGradient><linearGradient x1="181.75" y1="131.375" x2="181.75" y2="186.875" gradientUnits="userSpaceOnUse" id="color-2"><stop offset="0" stop-color="#00d25b"/><stop offset="1" stop-color="#00ff6d"/></linearGradient><linearGradient x1="181.75" y1="113.625" x2="181.75" y2="155.625" gradientUnits="userSpaceOnUse" id="color-3"><stop offset="0" stop-color="#ff9400"/><stop offset="1" stop-color="#ffc900"/></linearGradient><linearGradient x1="193.25" y1="155.625" x2="193.25" y2="186.375" gradientUnits="userSpaceOnUse" id="color-4"><stop offset="0" stop-color="#ff9400"/><stop offset="1" stop-color="#ffc900"/></linearGradient><linearGradient x1="241.625" y1="123.375" x2="241.625" y2="194.375" gradientUnits="userSpaceOnUse" id="color-5"><stop offset="0" stop-color="#ff9400"/><stop offset="1" stop-color="#ffc900"/></linearGradient><linearGradient x1="241.25" y1="112.625" x2="241.25" y2="122.875" gradientUnits="userSpaceOnUse" id="color-6"><stop offset="0" stop-color="#ff9400"/><stop offset="1" stop-color="#ffc900"/></linearGradient><linearGradient x1="237.5" y1="187.875" x2="237.5" y2="204.125" gradientUnits="userSpaceOnUse" id="color-7"><stop offset="0" stop-color="#ff9400"/><stop offset="1" stop-color="#ffc900"/></linearGradient><linearGradient x1="288.125" y1="154.875" x2="288.125" y2="188.125" gradientUnits="userSpaceOnUse" id="color-8"><stop offset="0" stop-color="#ff9400"/><stop offset="1" stop-color="#ffc900"/></linearGradient><linearGradient x1="237.625" y1="213.625" x2="237.625" y2="248.875" gradientUnits="userSpaceOnUse" id="color-9"><stop offset="0" stop-color="#ff9400"/><stop offset="1" stop-color="#ffc900"/></linearGradient><linearGradient x1="297.625" y1="131.125" x2="297.625" y2="155.125" gradientUnits="userSpaceOnUse" id="color-10"><stop offset="0" stop-color="#00d25b"/><stop offset="1" stop-color="#00ff6d"/></linearGradient><linearGradient x1="288.5" y1="154.875" x2="288.5" y2="204.375" gradientUnits="userSpaceOnUse" id="color-11"><stop offset="0" stop-color="#00d25b"/><stop offset="1" stop-color="#00ff6d"/></linearGradient><linearGradient x1="241.5" y1="123.625" x2="241.5" y2="203.625" gradientUnits="userSpaceOnUse" id="color-12"><stop offset="0" stop-color="#00d25b"/><stop offset="1" stop-color="#00ff6d"/></linearGradient><linearGradient x1="238" y1="212.625" x2="238" y2="234.375" gradientUnits="userSpaceOnUse" id="color-13"><stop offset="0" stop-color="#00d25b"/><stop offset="1" stop-color="#00ff6d"/></linearGradient></defs><g transform="translate(-162.375,-110.87374)"><g data-paper-data="{&quot;isPaintingLayer&quot;:true}" fill-rule="nonzero" stroke-linejoin="miter" stroke-miterlimit="10" stroke-dasharray="" stroke-dashoffset="0" style="mix-blend-mode: normal"><path d="M206.175,129.775l-8.5,-18l96.2,9.35l-32.75,8.5z" fill="#000000" stroke="#000000" stroke-width="0.5" stroke-linecap="butt"/><path d="M167.875,154.125l38.25,-24.25l-15.05,24.1l2.9,30.6z" fill="#000000" stroke="#000000" stroke-width="0.5" stroke-linecap="butt"/><path d="M167.625,154.125l30.25,-42v0l8.5,18z" fill="#000000" stroke="#000000" stroke-width="0.5" stroke-linecap="butt"/><path d="M193.875,184.875l-2.75,-30.5l0.5,-0.25l14.25,19.25z" fill="#000000" stroke="#000000" stroke-width="0.5" stroke-linecap="butt"/><path d="M200.375,192.125l62,-63l31.4,-7.85l-93.15,71.6z" fill="#000000" stroke="#000000" stroke-width="0.5" stroke-linecap="butt"/><path d="M198.275,111.775l0.35,-0.65l89.25,0.75l6.5,9.5z" fill="#000000" stroke="#000000" stroke-width="0.5" stroke-linecap="butt"/><path d="M207.625,202.125l62,-15.5v-0.25l8.25,16.25z" fill="#000000" stroke="#000000" stroke-width="0.5" stroke-linecap="butt"/><path d="M269.875,186.125l25.75,-32.75h21.25l-47,33.25z" fill="#000000" stroke="#000000" stroke-width="0.5" stroke-linecap="butt"/><path d="M242.625,247.375l-28,-35.25l28.5,20.75l28,-20.25z" fill="#000000" stroke="#000000" stroke-width="0.5" stroke-linecap="butt"/><path d="M296.125,153.625l-8,-11.75l12.25,-12.25l17.25,23.5z" fill="#000000" stroke="#000000" stroke-width="0.5" stroke-linecap="butt"/><path d="M269.875,186.125l46.75,-32.5v-0.05l-38.8,48.9z" fill="#000000" stroke="#000000" stroke-width="0.5" stroke-linecap="butt"/><path d="M293.825,121.325l-93.95,72.05l7,8.75l63.35,-15.55l-37.85,-1.7z" fill="#000000" stroke="#000000" stroke-width="0.5" stroke-linecap="round"/><path d="M215.125,212.425l21.75,-1.3l6,7.25l6.25,-7l21.45,1.75l-27.7,19.75z" fill="#000000" stroke="#000000" stroke-width="0.5" stroke-linecap="round"/><path d="M200.925,131.275l-8.5,-18l96.2,9.35l-32.75,8.5z" fill="url(#color-1)" stroke="none" stroke-width="0" stroke-linecap="butt"/><path d="M162.625,155.625l38.25,-24.25l-15.05,24.1l2.9,30.6z" fill="url(#color-2)" stroke="none" stroke-width="0" stroke-linecap="butt"/><path d="M162.375,155.625l30.25,-42v0l8.5,18z" fill="url(#color-3)" stroke="none" stroke-width="0" stroke-linecap="butt"/><path d="M188.625,186.375l-2.75,-30.5l0.5,-0.25l14.25,19.25z" fill="url(#color-4)" stroke="none" stroke-width="0" stroke-linecap="butt"/><path d="M195.125,193.625l62,-63l31.4,-7.85l-93.15,71.6z" fill="url(#color-5)" stroke="none" stroke-width="0" stroke-linecap="butt"/><path d="M193.025,113.275l0.35,-0.65l89.25,0.75l6.5,9.5z" fill="url(#color-6)" stroke="none" stroke-width="0" stroke-linecap="butt"/><path d="M202.375,203.625l62,-15.5v-0.25l8.25,16.25z" fill="url(#color-7)" stroke="none" stroke-width="0" stroke-linecap="butt"/><path d="M264.625,187.625l25.75,-32.75h21.25l-47,33.25z" fill="url(#color-8)" stroke="none" stroke-width="0" stroke-linecap="butt"/><path d="M237.375,248.875l-28,-35.25l28.5,20.75l28,-20.25z" fill="url(#color-9)" stroke="none" stroke-width="0" stroke-linecap="butt"/><path d="M290.875,155.125l-8,-11.75l12.25,-12.25l17.25,23.5z" fill="url(#color-10)" stroke="none" stroke-width="0" stroke-linecap="butt"/><path d="M264.625,187.625l46.75,-32.5v-0.05l-38.8,48.9z" fill="url(#color-11)" stroke="none" stroke-width="0" stroke-linecap="butt"/><path d="M288.575,122.825l-93.95,72.05l7,8.75l63.35,-15.55l-37.85,-1.7z" fill="url(#color-12)" stroke="none" stroke-width="0" stroke-linecap="round"/><path d="M209.875,213.925l21.75,-1.3l6,7.25l6.25,-7l21.45,1.75l-27.7,19.75z" fill="url(#color-13)" stroke="none" stroke-width="0" stroke-linecap="round"/></g></g></svg>