<svg version="1.1" xmlns="http://www.w3.org/2000/svg" xmlns:xlink="http://www.w3.org/1999/xlink" width="13.72809" height="21.12145" viewBox="0,0,13.72809,21.12145"><g transform="translate(-233.13595,-169.43927)"><g data-paper-data="{&quot;isPaintingLayer&quot;:true}" fill="#000000" fill-rule="nonzero" stroke="#000000" stroke-width="2" stroke-linecap="square" stroke-linejoin="miter" stroke-miterlimit="10" stroke-dasharray="" stroke-dashoffset="0" style="mix-blend-mode: normal"><path d="M240.05065,189.56073c-1.12082,0 -2.13361,-0.24307 -3.03837,-0.72921c-0.89125,-0.49964 -1.59345,-1.17483 -2.1066,-2.02558c-0.51315,-0.85074 -0.76972,-1.81627 -0.76972,-2.89658c0,-0.28358 0.08102,-0.5199 0.24307,-0.70895c0.16205,-0.18906 0.37811,-0.28358 0.64818,-0.28358c0.27008,0 0.48614,0.09452 0.64818,0.28358c0.16205,0.18906 0.24307,0.42537 0.24307,0.70895c0,0.72921 0.17555,1.39089 0.52665,1.98507c0.3646,0.59417 0.8575,1.0668 1.47867,1.4179c0.62117,0.33759 1.30987,0.50639 2.06609,0.50639c1.25586,0 2.23489,-0.3511 2.93709,-1.0533c0.71571,-0.7022 1.07356,-1.60696 1.07356,-2.71427c0,-0.79673 -0.1688,-1.48543 -0.50639,-2.06609c-0.33759,-0.59417 -0.79673,-1.0533 -1.37739,-1.37739c-0.58066,-0.33759 -1.2356,-0.50639 -1.96481,-0.50639c-0.25657,0 -0.47264,-0.08778 -0.64818,-0.26333c-0.17555,-0.17555 -0.26333,-0.39836 -0.26333,-0.66844c0,-0.27008 0.08778,-0.49289 0.26333,-0.66844c0.17555,-0.17555 0.39161,-0.26333 0.64818,-0.26333c0.56716,0 1.08706,-0.14179 1.55969,-0.42537c0.47264,-0.28358 0.85074,-0.65494 1.13432,-1.11407c0.29708,-0.47264 0.44563,-0.99253 0.44563,-1.55969c0,-0.85074 -0.29033,-1.55969 -0.871,-2.12686c-0.58066,-0.58066 -1.35038,-0.871 -2.30916,-0.871c-0.6887,0 -1.29637,0.13504 -1.82302,0.40512c-0.52665,0.27008 -0.94527,0.62793 -1.25586,1.07356c-0.29708,0.43213 -0.44563,0.93177 -0.44563,1.49893c0,0.27008 -0.08778,0.49964 -0.26333,0.6887c-0.16205,0.18906 -0.37136,0.28358 -0.62793,0.28358c-0.27008,0 -0.48614,-0.09452 -0.64818,-0.28358c-0.16205,-0.18906 -0.24307,-0.41187 -0.24307,-0.66844c0,-0.87775 0.22957,-1.67448 0.6887,-2.39018c0.45913,-0.72921 1.08031,-1.29637 1.86353,-1.70149c0.79673,-0.40512 1.71499,-0.60767 2.75479,-0.60767c0.93177,0 1.76901,0.20256 2.51172,0.60767c0.75622,0.40512 1.35714,0.97228 1.80276,1.70149c0.44563,0.71571 0.66844,1.51243 0.66844,2.39018c0,0.55366 -0.13504,1.08706 -0.40512,1.60021c-0.27008,0.51315 -0.62117,0.97903 -1.0533,1.39765c-0.43213,0.40512 -0.91151,0.72245 -1.43816,0.95202c0.82373,0.24307 1.51243,0.61443 2.06609,1.11407c0.55366,0.49964 0.95878,1.08706 1.21535,1.76225c0.25657,0.66169 0.38486,1.35714 0.38486,2.08634c0,1.0668 -0.25657,2.01882 -0.76972,2.85606c-0.49964,0.82373 -1.19509,1.47192 -2.08634,1.94455c-0.89125,0.47264 -1.87703,0.70895 -2.95734,0.70895z"/></g></g></svg>