<svg version="1.1" xmlns="http://www.w3.org/2000/svg" xmlns:xlink="http://www.w3.org/1999/xlink" width="191.4435" height="66.24565" viewBox="0,0,191.4435,66.24565"><g transform="translate(-146.95121,-179.11433)"><g data-paper-data="{&quot;isPaintingLayer&quot;:true}" fill-rule="nonzero" stroke="none" stroke-width="1" stroke-linecap="square" stroke-linejoin="miter" stroke-miterlimit="10" stroke-dasharray="" stroke-dashoffset="0" style="mix-blend-mode: normal"><path d="M172.86986,201.81103c0.32778,-0.79606 0.84289,-1.42824 1.54528,-1.8965c0.70241,-0.51509 1.45162,-0.77264 2.24769,-0.77264c0.70241,0 1.38139,0.23414 2.03698,0.70241c0.70241,0.46826 1.2409,1.10043 1.61553,1.8965c2.10721,4.3549 4.19099,9.06099 6.25138,14.11828c2.10721,5.0573 4.00369,9.85706 5.68945,14.39926c0.93654,-6.93037 1.96673,-13.90757 3.09057,-20.93159c1.12384,-7.07084 2.38817,-13.81391 3.79297,-20.22919c0.14048,-0.74922 0.37463,-1.35798 0.70241,-1.82624c0.32778,-0.46826 0.67898,-0.81946 1.0536,-1.0536c0.42144,-0.28096 0.84289,-0.46826 1.26432,-0.56192c0.42144,-0.14048 0.77264,-0.21072 1.0536,-0.21072c0.93654,0 1.70918,0.28096 2.31792,0.84289c0.65559,0.51509 0.98337,1.21751 0.98337,2.10721c0,1.03019 -0.1873,2.80962 -0.56192,5.33826c-0.32778,2.52865 -0.77264,5.50217 -1.33456,8.92051c-0.56192,3.37153 -1.19408,6.95379 -1.89648,10.74676c-0.65559,3.79298 -1.33457,7.44546 -2.03696,10.95747c-0.65559,3.51201 -1.28773,6.74306 -1.89648,9.69316c-0.60875,2.90327 -1.12384,5.10413 -1.54528,6.60259c-0.32778,1.26432 -0.84289,2.22426 -1.54528,2.87985c-0.65559,0.65559 -1.61553,0.98337 -2.87985,0.98337c-1.35799,0 -2.50522,-0.60874 -3.44177,-1.82625c-0.8897,-1.21751 -1.89648,-3.09057 -3.02033,-5.61922c-1.07702,-2.57547 -2.36474,-5.85336 -3.86322,-9.83363c-1.49847,-4.02712 -3.44178,-8.85026 -5.82995,-14.46949c-2.48184,5.61922 -4.49538,10.44238 -6.04066,14.46949c-1.54528,4.02712 -2.85643,7.32842 -3.93345,9.90389c-1.07702,2.57547 -2.10721,4.47195 -3.09057,5.68945c-0.93654,1.17067 -2.03698,1.75601 -3.3013,1.75601c-2.24769,0 -3.74615,-1.28775 -4.49536,-3.86322c-0.42144,-1.49846 -0.93654,-3.67591 -1.54528,-6.53234c-0.60874,-2.90327 -1.24091,-6.1109 -1.8965,-9.62291c-0.65559,-3.55883 -1.33456,-7.21132 -2.03696,-10.95748c-0.65559,-3.79298 -1.2409,-7.3518 -1.75601,-10.67651c-0.46826,-3.37153 -0.8663,-6.32163 -1.19408,-8.85027c-0.28096,-2.57547 -0.42144,-4.35488 -0.42144,-5.33826c0,-0.98337 0.30438,-1.77942 0.91312,-2.38817c0.60874,-0.60874 1.47505,-0.91312 2.59888,-0.91312c0.79606,0 1.54528,0.25755 2.24769,0.77264c0.74922,0.46826 1.28775,1.42823 1.61553,2.87985c1.35798,6.41528 2.55207,13.15835 3.58224,20.22919c1.03019,7.02402 2.13063,14.00122 3.3013,20.93159c1.73258,-4.07394 3.46519,-8.40541 5.19777,-12.99445c1.73259,-4.58903 3.88664,-9.73997 6.46211,-15.45285zM247.21876,244.93853c-0.8897,0 -1.5921,-0.14048 -2.10721,-0.42144c-0.51511,-0.32778 -0.91312,-0.74923 -1.19408,-1.26434c-0.28096,-0.51509 -0.49168,-1.12384 -0.63216,-1.82624c-0.09367,-0.70241 -0.1639,-1.42823 -0.21072,-2.17744c-1.4048,1.73258 -3.23104,3.18423 -5.47873,4.3549c-2.20087,1.17067 -4.98706,1.75601 -8.35859,1.75601c-2.20087,0 -4.44855,-0.32778 -6.74306,-0.98337c-2.24769,-0.65559 -4.28465,-1.77943 -6.11089,-3.37153c-1.82624,-1.5921 -3.34811,-3.72272 -4.56562,-6.39186c-1.17067,-2.66914 -1.75601,-6.06408 -1.75601,-10.18484c0,-3.18423 0.39803,-6.15773 1.19409,-8.92051c0.79606,-2.8096 1.99015,-5.26802 3.58226,-7.37523c1.5921,-2.10721 3.58224,-3.76955 5.97041,-4.98706c2.43499,-1.21751 5.26802,-1.82625 8.49907,-1.82625c2.85643,0 5.38508,0.51511 7.58595,1.54529c2.24769,1.03019 4.26123,2.71593 6.04066,5.05729c0,-0.65559 0.02341,-1.33456 0.07025,-2.03696c0.09367,-0.70241 0.25753,-1.33457 0.49168,-1.8965c0.28096,-0.60874 0.67898,-1.10042 1.19409,-1.47504c0.56192,-0.37461 1.33456,-0.56193 2.31792,-0.56193c0.84289,0 1.61553,0.3512 2.31792,1.05361c0.74923,0.65559 1.17065,2.10721 1.26432,4.35488c0.1873,2.95008 0.30438,5.5958 0.3512,7.93714c0.09367,2.34136 0.14048,4.77635 0.14048,7.30498c0,3.09056 -0.02341,5.9236 -0.07025,8.49907c-0.04682,2.57547 -0.1873,5.31483 -0.42144,8.2181c-0.09367,1.26432 -0.25753,2.27111 -0.49168,3.02034c-0.1873,0.74922 -0.42145,1.31115 -0.70241,1.68576c-0.28096,0.37461 -0.60874,0.60874 -0.98337,0.70241c-0.37463,0.14048 -0.77264,0.21072 -1.19408,0.21072zM242.72338,223.5855c0,-2.90327 -0.44487,-5.26803 -1.33457,-7.09427c-0.84289,-1.82624 -1.9199,-3.25446 -3.23104,-4.28465c-1.31115,-1.07702 -2.73937,-1.80283 -4.28465,-2.17744c-1.49847,-0.37461 -2.87985,-0.56193 -4.14417,-0.56193c-2.01355,0 -3.74616,0.37463 -5.19778,1.12384c-1.4048,0.70241 -2.55207,1.68576 -3.44177,2.95008c-0.8897,1.21751 -1.54528,2.69255 -1.96673,4.42514c-0.42144,1.68576 -0.63216,3.53544 -0.63216,5.54899c0,4.91683 1.07703,8.5693 3.23105,10.95747c2.15402,2.34136 5.08072,3.51201 8.78003,3.51201c2.15402,0 4.00369,-0.37461 5.54897,-1.12384c1.54528,-0.79606 2.8096,-1.82624 3.79297,-3.09056c0.98337,-1.26432 1.70918,-2.78618 2.17744,-4.56562c0.46826,-1.77943 0.70241,-3.65249 0.70241,-5.61922zM279.96211,241.2158c-1.21751,2.57547 -2.69255,3.86322 -4.42514,3.86322c-1.63895,0 -3.06714,-1.28775 -4.28465,-3.86322c-0.46826,-0.88971 -0.98337,-2.01354 -1.54528,-3.37153c-0.56192,-1.35798 -1.14726,-2.83304 -1.75601,-4.42514c-0.60875,-1.5921 -1.26432,-3.23105 -1.96672,-4.91683c-0.65559,-1.68576 -1.31115,-3.25448 -1.96673,-4.7061c-2.24769,-4.91683 -3.98027,-8.78003 -5.19778,-11.58963c-1.21751,-2.8096 -1.82624,-5.03388 -1.82624,-6.67282c0,-0.98337 0.28096,-1.77942 0.84289,-2.38817c0.60875,-0.60874 1.4048,-0.91313 2.38817,-0.91313c0.60875,0 1.26434,0.25755 1.96673,0.77265c0.70241,0.51509 1.42823,1.45162 2.17744,2.8096c2.10721,4.26123 4.07393,8.59273 5.90018,12.99445c1.82624,4.40171 3.60567,8.85027 5.33825,13.34565c1.73259,-4.49538 3.4886,-8.94394 5.26803,-13.34565c1.82624,-4.40171 3.81639,-8.73321 5.97041,-12.99445c0.70241,-1.35798 1.4048,-2.29451 2.10721,-2.8096c0.70241,-0.51509 1.35798,-0.77265 1.96673,-0.77265c1.03017,0 1.82624,0.30438 2.38817,0.91313c0.60875,0.60874 0.91312,1.4048 0.91312,2.38817c0,1.63894 -0.63216,3.86322 -1.89648,6.67282c-1.21751,2.8096 -2.92667,6.67282 -5.12754,11.58963c-0.70241,1.45162 -1.38138,3.02033 -2.03696,4.7061c-0.65559,1.68576 -1.31113,3.32472 -1.96672,4.91683c-0.60875,1.5921 -1.19408,3.06715 -1.75601,4.42514c-0.56192,1.35798 -1.0536,2.48182 -1.47505,3.37153zM320.90489,229.13447c-1.96672,0 -4.02712,-0.14048 -6.18114,-0.42144c-2.15402,-0.32778 -4.49539,-0.98337 -7.02404,-1.96673c0.51511,3.41834 1.91991,5.99384 4.21442,7.72643c2.34136,1.73258 5.68945,2.59888 10.04435,2.59888c1.5921,0 2.99692,-0.09366 4.21442,-0.28096c1.26432,-0.23414 2.36474,-0.46826 3.30129,-0.70241c0.98337,-0.28096 1.82624,-0.51509 2.52865,-0.70241c0.74923,-0.1873 1.42823,-0.28096 2.03696,-0.28096c0.79606,0 1.54528,0.23414 2.24769,0.70241c0.74923,0.46826 1.12384,1.26432 1.12384,2.38817c0,1.4048 -0.58534,2.55207 -1.75601,3.44178c-1.12384,0.88971 -2.52865,1.61553 -4.21441,2.17744c-1.63895,0.51509 -3.37153,0.8663 -5.19777,1.0536c-1.82624,0.1873 -3.44178,0.28097 -4.84658,0.28097c-3.32471,0 -6.36844,-0.44487 -9.13123,-1.33457c-2.76279,-0.88971 -5.15096,-2.22426 -7.1645,-4.00369c-2.01355,-1.82624 -3.58224,-4.07393 -4.70609,-6.74306c-1.12384,-2.71595 -1.68576,-5.87675 -1.68576,-9.48242c0,-3.4652 0.53849,-6.53234 1.61553,-9.20148c1.12384,-2.66914 2.6223,-4.91683 4.49538,-6.74306c1.91991,-1.87306 4.1676,-3.27788 6.74306,-4.21442c2.62232,-0.98337 5.45532,-1.47505 8.49907,-1.47505c2.34136,0 4.61244,0.32778 6.81331,0.98337c2.20087,0.60874 4.14417,1.52186 5.82993,2.73936c1.73259,1.21751 3.114,2.76279 4.14417,4.63586c1.03017,1.87306 1.54528,4.07393 1.54528,6.60257c0,2.24769 -0.42144,4.1676 -1.26432,5.7597c-0.84289,1.54528 -2.03696,2.78619 -3.58224,3.72274c-1.49847,0.93654 -3.32472,1.63894 -5.47874,2.10721c-2.15402,0.42144 -4.5422,0.63216 -7.16451,0.63216zM320.27273,209.67794c-1.49847,0 -2.95008,0.1873 -4.35488,0.56192c-1.4048,0.37461 -2.69255,0.95995 -3.86322,1.75602c-1.12384,0.79606 -2.08379,1.87306 -2.87985,3.23104c-0.74923,1.31115 -1.26432,2.92667 -1.54528,4.84658c2.10721,0.98337 4.1676,1.66235 6.18115,2.03696c2.01355,0.32778 4.14417,0.49168 6.39186,0.49168c3.32471,0 5.78312,-0.39803 7.37523,-1.19408c1.5921,-0.79606 2.38817,-2.27111 2.38817,-4.42514c0,-1.96672 -0.74922,-3.67591 -2.24769,-5.12754c-1.49847,-1.45162 -3.98027,-2.17746 -7.44547,-2.17746z" fill="#2cd200"/><path d="M172.86986,195.48029c0.32778,-0.79606 0.84289,-1.42823 1.54528,-1.89648c0.70241,-0.51511 1.45162,-0.77264 2.24769,-0.77264c0.70241,0 1.38138,0.23414 2.03696,0.70241c0.70241,0.46826 1.2409,1.10042 1.61553,1.89648c2.10721,4.3549 4.19099,9.06099 6.25138,14.11829c2.10721,5.05729 4.00369,9.85705 5.68945,14.39925c0.93654,-6.93037 1.96673,-13.90757 3.09057,-20.93159c1.12384,-7.07084 2.38817,-13.81391 3.79297,-20.22919c0.14048,-0.74922 0.37463,-1.35798 0.70241,-1.82625c0.32778,-0.46826 0.67898,-0.81946 1.0536,-1.0536c0.42144,-0.28096 0.84289,-0.46826 1.26432,-0.56192c0.42144,-0.14048 0.77264,-0.21072 1.0536,-0.21072c0.93654,0 1.70918,0.28096 2.31793,0.84289c0.65559,0.51511 0.98337,1.2175 0.98337,2.10721c0,1.03019 -0.1873,2.8096 -0.56192,5.33826c-0.32778,2.52865 -0.77264,5.50217 -1.33457,8.92051c-0.56192,3.37153 -1.19409,6.95379 -1.89648,10.74676c-0.65559,3.79297 -1.33457,7.44547 -2.03696,10.95748c-0.65559,3.51201 -1.28775,6.74306 -1.89648,9.69315c-0.60874,2.90327 -1.12384,5.10411 -1.54528,6.60259c-0.32778,1.26432 -0.84289,2.22426 -1.54528,2.87985c-0.65559,0.65559 -1.61553,0.98337 -2.87985,0.98337c-1.35798,0 -2.50522,-0.60874 -3.44178,-1.82625c-0.88971,-1.2175 -1.89648,-3.09057 -3.02033,-5.61922c-1.07702,-2.57547 -2.36474,-5.85336 -3.86322,-9.83364c-1.49847,-4.02712 -3.44178,-8.85027 -5.82995,-14.46949c-2.48182,5.61922 -4.49538,10.44238 -6.04066,14.46949c-1.54528,4.02712 -2.85643,7.3284 -3.93345,9.90387c-1.07702,2.57547 -2.10721,4.47195 -3.09057,5.68945c-0.93654,1.17067 -2.03696,1.75601 -3.30129,1.75601c-2.24769,0 -3.74616,-1.28775 -4.49538,-3.86322c-0.42144,-1.49847 -0.93654,-3.67591 -1.54528,-6.53234c-0.60874,-2.90327 -1.2409,-6.1109 -1.89648,-9.62291c-0.65559,-3.55883 -1.33457,-7.21132 -2.03696,-10.95748c-0.65559,-3.79297 -1.2409,-7.3518 -1.75601,-10.67651c-0.46826,-3.37153 -0.86631,-6.32163 -1.19409,-8.85027c-0.28096,-2.57547 -0.42144,-4.3549 -0.42144,-5.33826c0,-0.98337 0.30438,-1.77943 0.91312,-2.38817c0.60874,-0.60874 1.47505,-0.91312 2.59889,-0.91312c0.79606,0 1.54528,0.25753 2.24769,0.77264c0.74922,0.46826 1.28775,1.42823 1.61553,2.87985c1.35798,6.41528 2.55207,13.15835 3.58226,20.22919c1.03019,7.02402 2.13063,14.00124 3.30129,20.93159c1.73258,-4.07394 3.46519,-8.40541 5.19778,-12.99445c1.73258,-4.58903 3.88664,-9.73997 6.46211,-15.45286zM247.21876,238.6078c-0.88971,0 -1.5921,-0.14048 -2.10721,-0.42144c-0.51511,-0.32778 -0.91312,-0.74922 -1.19409,-1.26432c-0.28096,-0.51511 -0.49168,-1.12384 -0.63216,-1.82625c-0.09366,-0.70241 -0.1639,-1.42823 -0.21072,-2.17744c-1.4048,1.73258 -3.23105,3.18423 -5.47874,4.3549c-2.20087,1.17067 -4.98706,1.75601 -8.35859,1.75601c-2.20087,0 -4.44855,-0.32778 -6.74306,-0.98337c-2.24769,-0.65559 -4.28465,-1.77943 -6.1109,-3.37153c-1.82625,-1.5921 -3.34811,-3.72274 -4.56562,-6.39186c-1.17067,-2.66913 -1.75601,-6.06408 -1.75601,-10.18483c0,-3.18423 0.39803,-6.15773 1.19409,-8.92051c0.79606,-2.8096 1.99015,-5.26802 3.58226,-7.37523c1.5921,-2.10721 3.58226,-3.76956 5.97042,-4.98706c2.43499,-1.2175 5.26802,-1.82625 8.49907,-1.82625c2.85643,0 5.38507,0.51511 7.58595,1.54528c2.24769,1.03019 4.26123,2.71595 6.04066,5.05729c0,-0.65559 0.02342,-1.33457 0.07025,-2.03696c0.09366,-0.70241 0.25753,-1.33457 0.49168,-1.89648c0.28096,-0.60874 0.67898,-1.10042 1.19409,-1.47505c0.56192,-0.37463 1.33457,-0.56192 2.31793,-0.56192c0.84289,0 1.61553,0.3512 2.31793,1.0536c0.74922,0.65559 1.17067,2.10721 1.26432,4.3549c0.1873,2.9501 0.30438,5.5958 0.3512,7.93714c0.09366,2.34135 0.14048,4.77633 0.14048,7.30498c0,3.09057 -0.02342,5.9236 -0.07025,8.49907c-0.04682,2.57547 -0.1873,5.31484 -0.42144,8.21811c-0.09366,1.26432 -0.25753,2.27111 -0.49168,3.02033c-0.1873,0.74922 -0.42144,1.31115 -0.70241,1.68576c-0.28096,0.37463 -0.60874,0.60874 -0.98337,0.70241c-0.37463,0.14048 -0.77264,0.21072 -1.19409,0.21072zM242.72338,217.25478c0,-2.90327 -0.44486,-5.26802 -1.33457,-7.09427c-0.84289,-1.82625 -1.91991,-3.25448 -3.23105,-4.28465c-1.31115,-1.07702 -2.73937,-1.80283 -4.28465,-2.17744c-1.49847,-0.37463 -2.87985,-0.56192 -4.14417,-0.56192c-2.01355,0 -3.74616,0.37463 -5.19778,1.12384c-1.4048,0.70241 -2.55207,1.68576 -3.44178,2.9501c-0.88971,1.2175 -1.54528,2.69255 -1.96673,4.42513c-0.42144,1.68576 -0.63216,3.53544 -0.63216,5.54897c0,4.91681 1.07702,8.56932 3.23105,10.95748c2.15403,2.34135 5.08072,3.51201 8.78003,3.51201c2.15403,0 4.00369,-0.37463 5.54897,-1.12384c1.54528,-0.79606 2.8096,-1.82625 3.79297,-3.09057c0.98337,-1.26432 1.70918,-2.78619 2.17744,-4.56562c0.46826,-1.77943 0.70241,-3.65249 0.70241,-5.61922zM279.96211,234.88508c-1.2175,2.57547 -2.69255,3.86322 -4.42513,3.86322c-1.63895,0 -3.06715,-1.28775 -4.28465,-3.86322c-0.46826,-0.88971 -0.98337,-2.01355 -1.54528,-3.37153c-0.56192,-1.35798 -1.14727,-2.83303 -1.75601,-4.42513c-0.60874,-1.5921 -1.26432,-3.23105 -1.96673,-4.91681c-0.65559,-1.68576 -1.31115,-3.25448 -1.96673,-4.7061c-2.24769,-4.91681 -3.98027,-8.78003 -5.19778,-11.58965c-1.2175,-2.8096 -1.82625,-5.03388 -1.82625,-6.67282c0,-0.98337 0.28096,-1.77943 0.84289,-2.38817c0.60874,-0.60874 1.4048,-0.91312 2.38817,-0.91312c0.60874,0 1.26432,0.25753 1.96673,0.77264c0.70241,0.51511 1.42823,1.45162 2.17744,2.8096c2.10721,4.26123 4.07394,8.59273 5.90018,12.99445c1.82625,4.40172 3.60567,8.85027 5.33826,13.34565c1.73258,-4.49538 3.48859,-8.94393 5.26802,-13.34565c1.82625,-4.40172 3.81639,-8.73321 5.97042,-12.99445c0.70241,-1.35798 1.4048,-2.29451 2.10721,-2.8096c0.70241,-0.51511 1.35798,-0.77264 1.96673,-0.77264c1.03019,0 1.82625,0.30438 2.38817,0.91312c0.60874,0.60874 0.91312,1.4048 0.91312,2.38817c0,1.63895 -0.63216,3.86322 -1.89648,6.67282c-1.2175,2.8096 -2.92667,6.67282 -5.12754,11.58965c-0.70241,1.45162 -1.38138,3.02033 -2.03696,4.7061c-0.65559,1.68576 -1.31115,3.32471 -1.96673,4.91681c-0.60874,1.5921 -1.19409,3.06715 -1.75601,4.42513c-0.56192,1.35798 -1.0536,2.48182 -1.47505,3.37153zM320.90489,222.80375c-1.96673,0 -4.02712,-0.14048 -6.18114,-0.42144c-2.15403,-0.32778 -4.49538,-0.98337 -7.02402,-1.96673c0.51511,3.41835 1.91991,5.99385 4.21442,7.72643c2.34135,1.73258 5.68945,2.59889 10.04435,2.59889c1.5921,0 2.99691,-0.09366 4.21442,-0.28096c1.26432,-0.23414 2.36474,-0.46826 3.30129,-0.70241c0.98337,-0.28096 1.82625,-0.51511 2.52865,-0.70241c0.74922,-0.1873 1.42823,-0.28096 2.03696,-0.28096c0.79606,0 1.54528,0.23414 2.24769,0.70241c0.74922,0.46826 1.12384,1.26432 1.12384,2.38817c0,1.4048 -0.58534,2.55207 -1.75601,3.44178c-1.12384,0.88971 -2.52865,1.61553 -4.21442,2.17744c-1.63895,0.51511 -3.37153,0.86631 -5.19778,1.0536c-1.82625,0.1873 -3.44178,0.28096 -4.84658,0.28096c-3.32471,0 -6.36844,-0.44486 -9.13123,-1.33457c-2.76279,-0.88971 -5.15096,-2.22426 -7.1645,-4.00369c-2.01355,-1.82625 -3.58226,-4.07394 -4.7061,-6.74306c-1.12384,-2.71595 -1.68576,-5.87675 -1.68576,-9.48244c0,-3.46519 0.5385,-6.53234 1.61553,-9.20148c1.12384,-2.66913 2.62232,-4.91681 4.49538,-6.74306c1.91991,-1.87306 4.1676,-3.27788 6.74306,-4.21442c2.62232,-0.98337 5.45532,-1.47505 8.49907,-1.47505c2.34135,0 4.61243,0.32778 6.8133,0.98337c2.20087,0.60874 4.14417,1.52187 5.82995,2.73937c1.73258,1.2175 3.11399,2.76279 4.14417,4.63586c1.03019,1.87306 1.54528,4.07394 1.54528,6.60259c0,2.24769 -0.42144,4.1676 -1.26432,5.7597c-0.84289,1.54528 -2.03696,2.78619 -3.58226,3.72274c-1.49847,0.93654 -3.32471,1.63895 -5.47874,2.10721c-2.15403,0.42144 -4.5422,0.63216 -7.1645,0.63216zM320.27273,203.34721c-1.49847,0 -2.9501,0.1873 -4.3549,0.56192c-1.4048,0.37463 -2.69255,0.95994 -3.86322,1.75601c-1.12384,0.79606 -2.08379,1.87306 -2.87985,3.23105c-0.74922,1.31115 -1.26432,2.92667 -1.54528,4.84658c2.10721,0.98337 4.1676,1.66235 6.18114,2.03696c2.01355,0.32778 4.14417,0.49168 6.39186,0.49168c3.32471,0 5.78312,-0.39803 7.37523,-1.19409c1.5921,-0.79606 2.38817,-2.27111 2.38817,-4.42513c0,-1.96673 -0.74922,-3.67591 -2.24769,-5.12754c-1.49847,-1.45162 -3.98027,-2.17744 -7.44547,-2.17744z" fill="#35ff00"/></g></g></svg>