<svg version="1.1" xmlns="http://www.w3.org/2000/svg" xmlns:xlink="http://www.w3.org/1999/xlink" width="720" height="540" viewBox="0,0,720,540"><defs><clipPath id="clip-1"><rect x="-240" y="-180" transform="scale(0.5,0.5)" width="1440" height="1080" fill="none" fill-rule="nonzero" stroke="none" stroke-width="0.5" stroke-linecap="butt"/></clipPath></defs><g transform="translate(120,90)"><g clip-path="url(#clip-1)" data-paper-data="{&quot;isPaintingLayer&quot;:true}" stroke-linejoin="miter" stroke-miterlimit="10" stroke-dasharray="" stroke-dashoffset="0" style="mix-blend-mode: normal"><path d="M-240,-180h960v720h-960z" fill-opacity="0" fill="#000000" fill-rule="evenodd" stroke="none" stroke-width="1" stroke-linecap="square"/><path d="M140.78217,216.8714h770.14166v42.01575h-770.14166z" fill-opacity="0" fill="#000000" fill-rule="evenodd" stroke="none" stroke-width="1" stroke-linecap="square"/><path d="M135.63511,190.48556c-0.4076,0 -0.75407,-0.13247 -1.03938,-0.39741c-0.26494,-0.26494 -0.39741,-0.61141 -0.39741,-1.03938v-25.64837c0,-0.4076 0.13247,-0.74387 0.39741,-1.00881c0.28532,-0.28532 0.63178,-0.42799 1.03938,-0.42799c0.4076,0 0.74387,0.14266 1.00881,0.42799c0.28532,0.26494 0.42799,0.60121 0.42799,1.00881v11.40268h17.79184v-11.40268c0,-0.4076 0.13247,-0.74387 0.39741,-1.00881c0.26494,-0.28532 0.61141,-0.42799 1.03938,-0.42799c0.4076,0 0.74387,0.14266 1.00881,0.42799c0.26494,0.26494 0.39741,0.60121 0.39741,1.00881v25.64837c0,0.42799 -0.13247,0.77444 -0.39741,1.03938c-0.26494,0.26494 -0.60121,0.39741 -1.00881,0.39741c-0.42799,0 -0.77444,-0.13247 -1.03938,-0.39741c-0.26494,-0.26494 -0.39741,-0.61141 -0.39741,-1.03938v-11.70837h-17.79184v11.70837c0,0.42799 -0.14266,0.77444 -0.42799,1.03938c-0.26494,0.26494 -0.60121,0.39741 -1.00881,0.39741zM166.65577,190.48556c-0.42799,0 -0.77444,-0.12228 -1.03938,-0.36684c-0.24456,-0.26494 -0.36684,-0.62159 -0.36684,-1.06995v-17.11929c0,-0.42799 0.12228,-0.76425 0.36684,-1.00881c0.26494,-0.26494 0.61141,-0.39741 1.03938,-0.39741c0.4076,0 0.74387,0.13247 1.00881,0.39741c0.26494,0.24456 0.39741,0.58084 0.39741,1.00881v17.11929c0,0.44836 -0.13247,0.80501 -0.39741,1.06995c-0.26494,0.24456 -0.60121,0.36684 -1.00881,0.36684zM166.6252,166.73254c-0.55027,0 -1.01901,-0.19362 -1.40623,-0.58084c-0.38722,-0.4076 -0.58084,-0.88653 -0.58084,-1.4368c0,-0.61141 0.2038,-1.09034 0.61141,-1.4368c0.4076,-0.34646 0.87635,-0.5197 1.40623,-0.5197c0.5095,0 0.95787,0.17323 1.34509,0.5197c0.4076,0.34646 0.61141,0.82539 0.61141,1.4368c0,0.55027 -0.19362,1.0292 -0.58084,1.4368c-0.38722,0.38722 -0.85596,0.58084 -1.40623,0.58084zM183.99108,190.66898c-1.91573,0 -3.61747,-0.42799 -5.10522,-1.28395c-1.48775,-0.87635 -2.64941,-2.07877 -3.485,-3.60728c-0.83558,-1.52851 -1.25338,-3.2812 -1.25338,-5.25807c0,-1.99725 0.43817,-3.76013 1.31452,-5.28864c0.87635,-1.52851 2.07877,-2.72075 3.60728,-3.57671c1.52851,-0.87635 3.27101,-1.31452 5.2275,-1.31452c1.95649,0 3.69899,0.43817 5.2275,1.31452c1.52851,0.85596 2.72075,2.0482 3.57671,3.57671c0.87635,1.52851 1.32471,3.29139 1.34509,5.28864l-1.65079,0.88653c0,1.79345 -0.37703,3.39329 -1.13109,4.79951c-0.75407,1.38585 -1.79345,2.47618 -3.11816,3.27101c-1.32471,0.79482 -2.84303,1.19224 -4.55496,1.19224zM184.35793,198.37267c-1.91573,0 -3.60728,-0.36684 -5.07465,-1.10052c-1.44699,-0.7133 -2.64941,-1.68136 -3.60728,-2.90417c-0.26494,-0.3057 -0.38722,-0.63178 -0.36684,-0.97824c0.04076,-0.32608 0.22419,-0.60121 0.55027,-0.82539c0.3057,-0.22419 0.65216,-0.3057 1.03938,-0.24456c0.4076,0.08152 0.7133,0.27513 0.9171,0.58084c0.7133,0.87635 1.62022,1.57946 2.72075,2.10934c1.12091,0.52988 2.40486,0.79482 3.85184,0.79482c1.36546,0 2.59846,-0.32608 3.69899,-0.97824c1.10052,-0.65216 1.96668,-1.57946 2.59846,-2.78189c0.65216,-1.18204 0.97824,-2.57809 0.97824,-4.18811v-5.5332l1.06995,-2.13991l1.71193,0.33627v7.45913c0,1.95649 -0.43817,3.71937 -1.31452,5.28864c-0.87635,1.56927 -2.06858,2.81246 -3.57671,3.72956c-1.50813,0.9171 -3.24044,1.37566 -5.19693,1.37566zM184.29679,188.10109c1.42661,0 2.69017,-0.31589 3.7907,-0.94767c1.12091,-0.65216 1.99725,-1.54889 2.62903,-2.69017c0.63178,-1.14129 0.94767,-2.4558 0.94767,-3.94355c0,-1.48775 -0.31589,-2.80226 -0.94767,-3.94355c-0.63178,-1.16167 -1.50813,-2.06858 -2.62903,-2.72075c-1.10052,-0.65216 -2.36409,-0.97824 -3.7907,-0.97824c-1.44699,0 -2.73094,0.32608 -3.85184,0.97824c-1.12091,0.65216 -1.99725,1.55908 -2.62903,2.72075c-0.63178,1.14129 -0.94767,2.4558 -0.94767,3.94355c0,1.48775 0.31589,2.80226 0.94767,3.94355c0.63178,1.14129 1.50813,2.03801 2.62903,2.69017c1.12091,0.63178 2.40486,0.94767 3.85184,0.94767zM217.0172,190.48556c-0.4076,0 -0.74387,-0.13247 -1.00881,-0.39741c-0.26494,-0.26494 -0.39741,-0.59102 -0.39741,-0.97824v-9.50732c0,-1.50813 -0.28532,-2.74112 -0.85596,-3.69899c-0.57064,-0.97824 -1.35528,-1.71193 -2.3539,-2.20105c-0.97824,-0.48913 -2.08896,-0.73368 -3.33215,-0.73368c-1.18204,0 -2.26219,0.23437 -3.24044,0.70311c-0.95787,0.44836 -1.72212,1.08015 -2.29276,1.89535c-0.55027,0.79482 -0.82539,1.70174 -0.82539,2.72075h-1.98707c0.04076,-1.52851 0.44836,-2.89397 1.22281,-4.0964c0.79482,-1.20243 1.83421,-2.1501 3.11816,-2.84303c1.28395,-0.69293 2.72075,-1.03938 4.3104,-1.03938c1.71193,0 3.25063,0.35665 4.6161,1.06995c1.36546,0.7133 2.44561,1.76288 3.24044,3.14873c0.79482,1.38585 1.19224,3.0774 1.19224,5.07465v9.50732c0,0.38722 -0.13247,0.7133 -0.39741,0.97824c-0.26494,0.26494 -0.60121,0.39741 -1.00881,0.39741zM201.3347,190.48556c-0.42799,0 -0.77444,-0.12228 -1.03938,-0.36684c-0.26494,-0.26494 -0.39741,-0.60121 -0.39741,-1.00881v-17.18043c0,-0.42799 0.13247,-0.76425 0.39741,-1.00881c0.26494,-0.26494 0.61141,-0.39741 1.03938,-0.39741c0.4076,0 0.73368,0.13247 0.97824,0.39741c0.26494,0.24456 0.39741,0.58084 0.39741,1.00881v17.18043c0,0.4076 -0.13247,0.74387 -0.39741,1.00881c-0.24456,0.24456 -0.57064,0.36684 -0.97824,0.36684zM201.3347,182.3539c-0.42799,0 -0.77444,-0.13247 -1.03938,-0.39741c-0.26494,-0.28532 -0.39741,-0.63178 -0.39741,-1.03938v-17.51671c0,-0.42799 0.13247,-0.77444 0.39741,-1.03938c0.26494,-0.26494 0.61141,-0.39741 1.03938,-0.39741c0.4076,0 0.73368,0.13247 0.97824,0.39741c0.26494,0.26494 0.39741,0.61141 0.39741,1.03938v17.51671c0,0.4076 -0.13247,0.75407 -0.39741,1.03938c-0.24456,0.26494 -0.57064,0.39741 -0.97824,0.39741zM244.44413,190.85241c-1.54889,0 -2.99588,-0.22419 -4.34097,-0.67255c-1.32471,-0.44836 -2.47618,-1.08015 -3.45443,-1.89535c-0.95787,-0.83558 -1.69155,-1.80364 -2.20105,-2.90417c-0.2038,-0.38722 -0.21399,-0.74387 -0.03057,-1.06995c0.18342,-0.34646 0.49931,-0.57064 0.94767,-0.67255c0.32608,-0.1019 0.65216,-0.07133 0.97824,0.09171c0.34646,0.16304 0.60121,0.41779 0.76425,0.76425c0.36684,0.7133 0.89672,1.35528 1.58965,1.92592c0.7133,0.55027 1.55908,0.97824 2.53732,1.28395c0.97824,0.3057 2.0482,0.45856 3.20987,0.45856c1.28395,0 2.42523,-0.21399 3.42385,-0.64198c0.99863,-0.42799 1.78326,-1.04958 2.3539,-1.86478c0.57064,-0.81521 0.85596,-1.81383 0.85596,-2.99588c0,-1.46737 -0.55027,-2.73094 -1.65079,-3.7907c-1.08015,-1.08015 -2.79208,-1.77307 -5.13579,-2.07877c-2.85322,-0.32608 -5.08484,-1.20243 -6.69487,-2.62903c-1.58965,-1.42661 -2.38447,-3.1793 -2.38447,-5.25807c0,-1.46737 0.38722,-2.75132 1.16167,-3.85184c0.79482,-1.10052 1.88516,-1.9463 3.27101,-2.53732c1.40623,-0.59102 3.00606,-0.88653 4.79951,-0.88653c1.34509,0 2.5577,0.21399 3.63785,0.64198c1.10052,0.4076 2.05839,0.95787 2.8736,1.65079c0.81521,0.69293 1.47756,1.45718 1.98707,2.29276c0.24456,0.38722 0.32608,0.76425 0.24456,1.13109c-0.08152,0.36684 -0.29551,0.64198 -0.64198,0.82539c-0.36684,0.18342 -0.74387,0.21399 -1.13109,0.09171c-0.36684,-0.12228 -0.64198,-0.35665 -0.82539,-0.70311c-0.36684,-0.55027 -0.82539,-1.06995 -1.37566,-1.55908c-0.55027,-0.5095 -1.22281,-0.90692 -2.01764,-1.19224c-0.77444,-0.3057 -1.70174,-0.46874 -2.78189,-0.48913c-1.93611,0 -3.485,0.4076 -4.64667,1.22281c-1.16167,0.81521 -1.7425,1.99725 -1.7425,3.54614c0,0.83558 0.21399,1.59983 0.64198,2.29276c0.44836,0.69293 1.17186,1.29414 2.17048,1.80364c1.01901,0.48913 2.37429,0.85596 4.06583,1.10052c3.05702,0.42799 5.31921,1.35528 6.78658,2.78189c1.46737,1.42661 2.20105,3.2812 2.20105,5.56377c0,1.32471 -0.23437,2.49656 -0.70311,3.51557c-0.46874,1.01901 -1.14129,1.87497 -2.01764,2.56789c-0.85596,0.69293 -1.86478,1.22281 -3.02645,1.58965c-1.16167,0.36684 -2.39466,0.55027 -3.69899,0.55027zM268.39365,190.66898c-1.93611,0 -3.64804,-0.43817 -5.13579,-1.31452c-1.48775,-0.89672 -2.6698,-2.10934 -3.54614,-3.63785c-0.85596,-1.54889 -1.28395,-3.2812 -1.28395,-5.19693c0,-1.93611 0.4076,-3.66842 1.22281,-5.19693c0.83558,-1.54889 1.96668,-2.76151 3.39329,-3.63785c1.44699,-0.89672 3.10797,-1.34509 4.98293,-1.34509c1.48775,0 2.85322,0.29551 4.0964,0.88653c1.26357,0.57064 2.36409,1.44699 3.30158,2.62903c0.26494,0.28532 0.35665,0.59102 0.27513,0.9171c-0.06114,0.32608 -0.26494,0.61141 -0.61141,0.85596c-0.26494,0.2038 -0.56045,0.27513 -0.88653,0.21399c-0.32608,-0.06114 -0.61141,-0.24456 -0.85596,-0.55027c-1.40623,-1.61003 -3.1793,-2.41504 -5.31921,-2.41504c-1.36546,0 -2.56789,0.33627 -3.60728,1.00881c-1.01901,0.65216 -1.82402,1.54889 -2.41504,2.69017c-0.57064,1.14129 -0.85596,2.4558 -0.85596,3.94355c0,1.46737 0.3057,2.77169 0.9171,3.91298c0.61141,1.14129 1.46737,2.03801 2.56789,2.69017c1.10052,0.65216 2.3539,0.97824 3.76013,0.97824c0.93749,0 1.80364,-0.12228 2.59846,-0.36684c0.79482,-0.26494 1.49794,-0.66236 2.10934,-1.19224c0.28532,-0.24456 0.58084,-0.37703 0.88653,-0.39741c0.32608,-0.02038 0.62159,0.07133 0.88653,0.27513c0.3057,0.28532 0.46874,0.60121 0.48913,0.94767c0.04076,0.32608 -0.07133,0.61141 -0.33627,0.85596c-1.77307,1.6304 -3.98431,2.44561 -6.63373,2.44561zM290.33151,190.66898c-1.95649,0 -3.69899,-0.43817 -5.2275,-1.31452c-1.52851,-0.87635 -2.73094,-2.07877 -3.60728,-3.60728c-0.87635,-1.52851 -1.31452,-3.27101 -1.31452,-5.2275c0,-1.97687 0.43817,-3.72956 1.31452,-5.25807c0.87635,-1.52851 2.07877,-2.73094 3.60728,-3.60728c1.52851,-0.87635 3.27101,-1.31452 5.2275,-1.31452c1.93611,0 3.66842,0.43817 5.19693,1.31452c1.52851,0.87635 2.73094,2.07877 3.60728,3.60728c0.87635,1.52851 1.32471,3.2812 1.34509,5.25807c0,1.95649 -0.44836,3.69899 -1.34509,5.2275c-0.87635,1.52851 -2.07877,2.73094 -3.60728,3.60728c-1.52851,0.87635 -3.26082,1.31452 -5.19693,1.31452zM290.33151,188.10109c1.40623,0 2.6698,-0.32608 3.7907,-0.97824c1.12091,-0.65216 1.99725,-1.54889 2.62903,-2.69017c0.63178,-1.14129 0.94767,-2.44561 0.94767,-3.91298c0,-1.46737 -0.31589,-2.77169 -0.94767,-3.91298c-0.63178,-1.16167 -1.50813,-2.06858 -2.62903,-2.72075c-1.12091,-0.67255 -2.38447,-1.00881 -3.7907,-1.00881c-1.40623,0 -2.6698,0.33627 -3.7907,1.00881c-1.12091,0.65216 -2.00744,1.55908 -2.6596,2.72075c-0.65216,1.14129 -0.97824,2.44561 -0.97824,3.91298c0,1.46737 0.32608,2.77169 0.97824,3.91298c0.65216,1.14129 1.5387,2.03801 2.6596,2.69017c1.12091,0.65216 2.38447,0.97824 3.7907,0.97824zM307.12486,178.19635c0.06114,-1.50813 0.44836,-2.85322 1.16167,-4.03526c0.73368,-1.20243 1.67117,-2.13991 2.81246,-2.81246c1.16167,-0.69293 2.44561,-1.03938 3.85184,-1.03938c1.12091,0 1.98707,0.16304 2.59846,0.48913c0.61141,0.3057 0.84578,0.76425 0.70311,1.37566c-0.1019,0.36684 -0.27513,0.61141 -0.5197,0.73368c-0.22419,0.1019 -0.49931,0.14266 -0.82539,0.12228c-0.32608,-0.02038 -0.69293,-0.04076 -1.10052,-0.06114c-1.36546,-0.12228 -2.57809,0.02038 -3.63785,0.42799c-1.05977,0.38722 -1.90554,0.99863 -2.53732,1.83421c-0.61141,0.83558 -0.9171,1.82402 -0.9171,2.96531zM307.33885,190.48556c-0.44836,0 -0.79482,-0.12228 -1.03938,-0.36684c-0.24456,-0.24456 -0.36684,-0.58084 -0.36684,-1.00881v-17.211c0,-0.42799 0.12228,-0.76425 0.36684,-1.00881c0.24456,-0.24456 0.59102,-0.36684 1.03938,-0.36684c0.42799,0 0.76425,0.12228 1.00881,0.36684c0.24456,0.24456 0.36684,0.58084 0.36684,1.00881v17.211c0,0.42799 -0.12228,0.76425 -0.36684,1.00881c-0.24456,0.24456 -0.58084,0.36684 -1.00881,0.36684zM330.26851,190.66898c-1.97687,0 -3.72956,-0.42799 -5.25807,-1.28395c-1.50813,-0.87635 -2.70037,-2.07877 -3.57671,-3.60728c-0.85596,-1.52851 -1.28395,-3.2812 -1.28395,-5.25807c0,-1.99725 0.4076,-3.74994 1.22281,-5.25807c0.81521,-1.52851 1.93611,-2.73094 3.36272,-3.60728c1.44699,-0.87635 3.10797,-1.31452 4.98293,-1.31452c1.83421,0 3.43405,0.41779 4.79951,1.25338c1.38585,0.83558 2.4558,1.99725 3.20987,3.485c0.75407,1.48775 1.13109,3.1793 1.13109,5.07465c0,0.38722 -0.12228,0.70311 -0.36684,0.94767c-0.24456,0.22419 -0.56045,0.33627 -0.94767,0.33627h-15.49908v-2.3539h15.80477l-1.55908,1.13109c0.02038,-1.40623 -0.24456,-2.6698 -0.79482,-3.7907c-0.52988,-1.12091 -1.28395,-1.99725 -2.26219,-2.62903c-0.97824,-0.63178 -2.1501,-0.94767 -3.51557,-0.94767c-1.38585,0 -2.60866,0.33627 -3.66842,1.00881c-1.03938,0.65216 -1.8444,1.55908 -2.41504,2.72075c-0.57064,1.14129 -0.85596,2.4558 -0.85596,3.94355c0,1.48775 0.31589,2.80226 0.94767,3.94355c0.65216,1.14129 1.5387,2.0482 2.6596,2.72075c1.12091,0.65216 2.41504,0.97824 3.88241,0.97824c0.87635,0 1.75269,-0.15285 2.62903,-0.45856c0.89672,-0.3057 1.61003,-0.69293 2.13991,-1.16167c0.26494,-0.22419 0.57064,-0.33627 0.9171,-0.33627c0.34646,-0.02038 0.63178,0.07133 0.85596,0.27513c0.32608,0.28532 0.48913,0.60121 0.48913,0.94767c0.02038,0.32608 -0.11209,0.61141 -0.39741,0.85596c-0.81521,0.69293 -1.8444,1.26357 -3.08759,1.71193c-1.22281,0.44836 -2.40486,0.67255 -3.54614,0.67255zM343.6312,174.98649c-0.59102,0 -1.10052,-0.19362 -1.52851,-0.58084c-0.42799,-0.4076 -0.64198,-0.9171 -0.64198,-1.52851c0,-0.61141 0.2038,-1.12091 0.61141,-1.52851c0.42799,-0.4076 0.94767,-0.61141 1.55908,-0.61141c0.57064,0 1.05977,0.21399 1.46737,0.64198c0.4076,0.4076 0.61141,0.90692 0.61141,1.49794c0,0.59102 -0.2038,1.09034 -0.61141,1.49794c-0.4076,0.4076 -0.89672,0.61141 -1.46737,0.61141zM343.69234,191.0664c-0.59102,0 -1.09034,-0.2038 -1.49794,-0.61141c-0.4076,-0.4076 -0.61141,-0.90692 -0.61141,-1.49794c0,-0.61141 0.2038,-1.12091 0.61141,-1.52851c0.42799,-0.42799 0.9273,-0.64198 1.49794,-0.64198c0.59102,0 1.09034,0.21399 1.49794,0.64198c0.4076,0.42799 0.61141,0.93749 0.61141,1.52851c0,0.55027 -0.2038,1.03938 -0.61141,1.46737c-0.38722,0.42799 -0.88653,0.64198 -1.49794,0.64198z" fill="#000000" fill-rule="nonzero" stroke="#000000" stroke-width="1" stroke-linecap="square"/></g></g></svg>