<svg version="1.1" xmlns="http://www.w3.org/2000/svg" xmlns:xlink="http://www.w3.org/1999/xlink" width="41.25591" height="123.50751" viewBox="0,0,41.25591,123.50751"><g transform="translate(-219.37206,-118.24625)"><g data-paper-data="{&quot;isPaintingLayer&quot;:true}" fill="#000000" fill-rule="nonzero" stroke="#000000" stroke-width="5.5" stroke-linecap="square" stroke-linejoin="miter" stroke-miterlimit="10" stroke-dasharray="" stroke-dashoffset="0" style="mix-blend-mode: normal"><path d="M251.93977,239.00377c-1.60039,0 -2.99014,-0.54753 -4.16945,-1.64252c-1.09499,-1.09499 -1.64252,-2.52694 -1.64252,-4.29577v-98.04461l-15.16151,5.30649c-1.09499,0.5054 -2.06366,0.75803 -2.90595,0.75803c-1.76883,0 -3.20078,-0.54753 -4.29576,-1.64252c-1.09499,-1.09498 -1.64252,-2.44267 -1.64252,-4.04306c0,-1.2635 0.2527,-2.35849 0.75803,-3.28503c0.58958,-1.0108 1.60039,-1.76883 3.03233,-2.27423l23.24771,-8.08619c0.5054,-0.16845 1.0108,-0.33689 1.51613,-0.5054c0.58958,-0.16845 1.09498,-0.2527 1.51613,-0.2527c1.68464,0 3.03233,0.58958 4.04306,1.76883c1.09499,1.17924 1.64252,2.56906 1.64252,4.16944v106.13081c0,1.76883 -0.54753,3.20078 -1.64252,4.29576c-1.09499,1.09499 -2.52693,1.64252 -4.29576,1.64252z"/></g></g></svg>