<svg version="1.1" xmlns="http://www.w3.org/2000/svg" xmlns:xlink="http://www.w3.org/1999/xlink" width="12.7281" height="19.91891" viewBox="0,0,12.7281,19.91891"><g transform="translate(-233.63595,-170.04055)"><g data-paper-data="{&quot;isPaintingLayer&quot;:true}" fill="#000000" fill-rule="nonzero" stroke="#000000" stroke-width="1" stroke-linecap="square" stroke-linejoin="miter" stroke-miterlimit="10" stroke-dasharray="" stroke-dashoffset="0" style="mix-blend-mode: normal"><path d="M236.97176,189.45947c-0.25657,0 -0.47938,-0.08778 -0.66844,-0.26333c-0.18906,-0.17555 -0.28358,-0.40512 -0.28358,-0.6887c0,-0.08102 0.0135,-0.1688 0.04051,-0.26333c0.04051,-0.09452 0.09452,-0.20256 0.16205,-0.32409l7.1908,-15.49567h-8.30487c-0.28358,0 -0.5199,-0.08778 -0.70895,-0.26333c-0.17555,-0.18906 -0.26333,-0.41187 -0.26333,-0.66844c0,-0.25657 0.08778,-0.47938 0.26333,-0.66844c0.18906,-0.18906 0.42537,-0.28358 0.70895,-0.28358h9.84431c0.25657,0 0.47264,0.09452 0.64818,0.28358c0.17555,0.18906 0.26333,0.41187 0.26333,0.66844c0,0.08102 -0.02026,0.1688 -0.06077,0.26333c-0.02701,0.08102 -0.05401,0.16205 -0.08102,0.24307l-7.92001,16.93383c-0.17555,0.3511 -0.45238,0.52665 -0.83049,0.52665z"/></g></g></svg>