<svg version="1.1" xmlns="http://www.w3.org/2000/svg" xmlns:xlink="http://www.w3.org/1999/xlink" width="720" height="540" viewBox="0,0,720,540"><defs><clipPath id="clip-1"><rect x="-240" y="-180" transform="scale(0.5,0.5)" width="1440" height="1080" fill="none" fill-rule="nonzero" stroke="none" stroke-width="0.5" stroke-linecap="butt"/></clipPath></defs><g transform="translate(120,90)"><g clip-path="url(#clip-1)" data-paper-data="{&quot;isPaintingLayer&quot;:true}" stroke-linejoin="miter" stroke-miterlimit="10" stroke-dasharray="" stroke-dashoffset="0" style="mix-blend-mode: normal"><path d="M-240,-180h960v720h-960z" fill-opacity="0" fill="#000000" fill-rule="evenodd" stroke="none" stroke-width="1" stroke-linecap="square"/><path d="M187.20488,27.76473h998.38827v318.43736h-998.38827z" fill-opacity="0" fill="#000000" fill-rule="evenodd" stroke="none" stroke-width="1" stroke-linecap="square"/><path d="M245.39025,246.35036c-7.81759,0 -14.88168,-1.69538 -21.19228,-5.08615c-6.21637,-3.48493 -11.11413,-8.1943 -14.69329,-14.12818c-3.57916,-5.93381 -5.36871,-12.66827 -5.36871,-20.20331c0,-1.97794 0.56511,-3.62624 1.69538,-4.94484c1.13028,-1.31867 2.63727,-1.97794 4.52098,-1.97794c1.88378,0 3.39077,0.65927 4.52098,1.97794c1.13028,1.31867 1.69538,2.96691 1.69538,4.94484c0,5.08615 1.22444,9.7013 3.67332,13.84563c2.54304,4.14427 5.98096,7.44081 10.31355,9.88969c4.33259,2.35465 9.13619,3.53201 14.41074,3.53201c8.75948,0 15.5881,-2.44888 20.48586,-7.34664c4.99199,-4.89776 7.48796,-11.20836 7.48796,-18.93172c0,-5.5571 -1.17736,-10.3607 -3.53201,-14.41074c-2.35465,-4.14427 -5.5571,-7.34664 -9.60713,-9.60713c-4.05004,-2.35465 -8.61817,-3.53201 -13.70432,-3.53201c-1.78955,0 -3.29661,-0.61226 -4.52098,-1.8367c-1.22444,-1.22444 -1.8367,-2.77851 -1.8367,-4.66229c0,-1.88378 0.61226,-3.43785 1.8367,-4.66229c1.22444,-1.22444 2.73143,-1.8367 4.52098,-1.8367c3.95588,0 7.58212,-0.98897 10.87866,-2.96691c3.29661,-1.97794 5.93381,-4.56813 7.91175,-7.77051c2.0721,-3.29661 3.10822,-6.92278 3.10822,-10.87866c0,-5.93381 -2.02502,-10.87866 -6.07512,-14.8346c-4.05004,-4.05004 -9.41874,-6.07512 -16.10612,-6.07512c-4.8036,0 -9.04203,0.94189 -12.71535,2.82566c-3.67332,1.88378 -6.59315,4.37974 -8.75948,7.48796c-2.0721,3.01406 -3.10822,6.49899 -3.10822,10.45486c0,1.88378 -0.61226,3.48493 -1.8367,4.8036c-1.13028,1.31867 -2.59019,1.97794 -4.37974,1.97794c-1.88378,0 -3.39077,-0.65927 -4.52098,-1.97794c-1.13028,-1.31867 -1.69538,-2.87275 -1.69538,-4.66229c0,-6.1222 1.60122,-11.6793 4.8036,-16.67123c3.20238,-5.08615 7.53504,-9.04203 12.9979,-11.86769c5.5571,-2.82566 11.96186,-4.23843 19.21434,-4.23843c6.49899,0 12.33864,1.41283 17.51895,4.23843c5.27455,2.82566 9.46589,6.78154 12.57404,11.86769c3.10822,4.99199 4.66229,10.54902 4.66229,16.67123c0,3.86171 -0.94189,7.58212 -2.82566,11.16128c-1.88378,3.57916 -4.33259,6.82862 -7.34664,9.74845c-3.01406,2.82566 -6.35768,5.039 -10.031,6.64023c5.74542,1.69538 10.54902,4.28558 14.41074,7.77051c3.86171,3.48493 6.68738,7.58212 8.47692,12.29149c1.78955,4.61521 2.68435,9.46589 2.68435,14.55198c0,7.44081 -1.78955,14.08103 -5.36871,19.92069c-3.48493,5.74542 -8.33561,10.26647 -14.55198,13.56301c-6.21637,3.29661 -13.09207,4.94484 -20.6271,4.94484z" fill="#000000" fill-rule="nonzero" stroke="#000000" stroke-width="5.5" stroke-linecap="square"/></g></g></svg>