<svg version="1.1" xmlns="http://www.w3.org/2000/svg" xmlns:xlink="http://www.w3.org/1999/xlink" width="15.25921" height="19.91891" viewBox="0.25086,0.25,15.25921,19.91891"><g transform="translate(-232.8696,-170.54055)"><g data-paper-data="{&quot;isPaintingLayer&quot;:true}" fill="#000000" fill-rule="nonzero" stroke="#000000" stroke-width="1" stroke-linecap="square" stroke-linejoin="miter" stroke-miterlimit="10" stroke-dasharray="" stroke-dashoffset="0" style="mix-blend-mode: normal"><path d="M244.11209,190.20946c-0.24307,0 -0.45238,-0.08778 -0.62793,-0.26333c-0.17555,-0.17555 -0.26333,-0.40512 -0.26333,-0.6887v-3.56502h-8.66947c-0.25657,0 -0.47264,-0.08102 -0.64818,-0.24307c-0.16205,-0.17555 -0.25657,-0.37811 -0.28358,-0.60767c-0.0135,-0.22957 0.04727,-0.43887 0.1823,-0.62793l9.58098,-12.53832c0.08102,-0.10803 0.1823,-0.1958 0.30384,-0.26333c0.12153,-0.08102 0.27683,-0.12153 0.46588,-0.12153c0.25657,0 0.46588,0.09452 0.62793,0.28358c0.17555,0.18906 0.26333,0.41862 0.26333,0.6887v11.72809h1.9243c0.25657,0 0.47264,0.06752 0.64818,0.20256c0.17555,0.12153 0.26333,0.34435 0.26333,0.66844c0,0.21606 -0.08778,0.41187 -0.26333,0.58742c-0.17555,0.16205 -0.39161,0.24307 -0.64818,0.24307h-1.9243v3.56502c0,0.28358 -0.08778,0.51315 -0.26333,0.6887c-0.17555,0.17555 -0.39836,0.26333 -0.66844,0.26333zM235.56415,184.72014l-0.32409,-0.72921h7.98078v-10.37096l0.48614,0.50639z"/></g></g></svg>