<svg version="1.1" xmlns="http://www.w3.org/2000/svg" xmlns:xlink="http://www.w3.org/1999/xlink" width="12.34322" height="19.9189" viewBox="0,0,12.34322,19.9189"><g transform="translate(-233.82839,-170.04055)"><g data-paper-data="{&quot;isPaintingLayer&quot;:true}" fill="#000000" fill-rule="nonzero" stroke="#000000" stroke-width="1" stroke-linecap="square" stroke-linejoin="miter" stroke-miterlimit="10" stroke-dasharray="" stroke-dashoffset="0" style="mix-blend-mode: normal"><path d="M235.40196,189.45945c-0.25657,0 -0.47938,-0.08778 -0.66844,-0.26333c-0.17555,-0.17555 -0.26333,-0.40512 -0.26333,-0.6887c0,-0.22957 0.08778,-0.44563 0.26333,-0.64818l7.33259,-8.64922c0.40512,-0.43213 0.72245,-0.91826 0.95202,-1.45842c0.24307,-0.54015 0.3646,-1.04655 0.3646,-1.51918c0,-0.75622 -0.14854,-1.42466 -0.44563,-2.00532c-0.29708,-0.58066 -0.71571,-1.03304 -1.25586,-1.35714c-0.54015,-0.33759 -1.15458,-0.50639 -1.84328,-0.50639c-0.67519,0 -1.29637,0.17555 -1.86353,0.52665c-0.55366,0.33759 -0.98578,0.79673 -1.29637,1.37739c-0.31059,0.58066 -0.46588,1.2356 -0.46588,1.96481c0,0.25657 -0.09452,0.47264 -0.28358,0.64818c-0.17555,0.17555 -0.39836,0.26333 -0.66844,0.26333c-0.25657,0 -0.47938,-0.08778 -0.66844,-0.26333c-0.17555,-0.17555 -0.26333,-0.39161 -0.26333,-0.64818c0,-1.08031 0.23632,-2.04583 0.70895,-2.89658c0.48614,-0.86424 1.14108,-1.54619 1.96481,-2.04583c0.83724,-0.49964 1.78251,-0.74946 2.83581,-0.74946c1.0398,0 1.96481,0.24307 2.77504,0.72921c0.82373,0.48614 1.46517,1.15458 1.9243,2.00532c0.45913,0.85074 0.6887,1.83652 0.6887,2.95734c0,0.52665 -0.08778,1.03304 -0.26333,1.51918c-0.16205,0.48614 -0.39161,0.95202 -0.6887,1.39765c-0.28358,0.44563 -0.59417,0.8575 -0.93177,1.2356l-6.19827,7.1908h7.57566c0.25657,0 0.47938,0.10128 0.66844,0.30384c0.18906,0.18906 0.28358,0.39836 0.28358,0.62793c0,0.28358 -0.09452,0.51315 -0.28358,0.6887c-0.18906,0.17555 -0.41187,0.26333 -0.66844,0.26333z"/></g></g></svg>