<svg version="1.1" xmlns="http://www.w3.org/2000/svg" xmlns:xlink="http://www.w3.org/1999/xlink" width="720" height="540" viewBox="0,0,720,540"><defs><clipPath id="clip-1"><rect x="-240" y="-180" transform="scale(0.5,0.5)" width="1440" height="1080" fill="none" fill-rule="nonzero" stroke="none" stroke-width="0.5" stroke-linecap="butt"/></clipPath></defs><g transform="translate(120,90)"><g clip-path="url(#clip-1)" data-paper-data="{&quot;isPaintingLayer&quot;:true}" stroke-linejoin="miter" stroke-miterlimit="10" stroke-dasharray="" stroke-dashoffset="0" style="mix-blend-mode: normal"><path d="M-240,-180h960v720h-960z" fill-opacity="0" fill="#000000" fill-rule="evenodd" stroke="none" stroke-width="1" stroke-linecap="square"/><path d="M187.20488,27.76473h998.38827v318.43736h-998.38827z" fill-opacity="0" fill="#000000" fill-rule="evenodd" stroke="none" stroke-width="1" stroke-linecap="square"/><path d="M241.71182,188.45945c-0.22945,0 -0.4287,-0.0785 -0.59778,-0.23549c-0.15699,-0.15699 -0.23549,-0.36229 -0.23549,-0.61589v-14.05681l-2.17373,0.7608c-0.15699,0.07246 -0.29587,0.10868 -0.41663,0.10868c-0.2536,0 -0.4589,-0.0785 -0.61589,-0.23549c-0.15699,-0.15699 -0.23549,-0.35021 -0.23549,-0.57966c0,-0.18115 0.03623,-0.33814 0.10868,-0.47098c0.08453,-0.14492 0.22945,-0.2536 0.43475,-0.32606l3.33306,-1.15933c0.07246,-0.02415 0.14492,-0.0483 0.21737,-0.07246c0.08453,-0.02415 0.15699,-0.03623 0.21737,-0.03623c0.24153,0 0.43475,0.08453 0.57966,0.2536c0.15699,0.16907 0.23549,0.36833 0.23549,0.59778v15.21614c0,0.2536 -0.0785,0.4589 -0.23549,0.61589c-0.15699,0.15699 -0.36229,0.23549 -0.61589,0.23549z" fill="#000000" fill-rule="nonzero" stroke="#000000" stroke-width="2" stroke-linecap="square"/></g></g></svg>