<svg version="1.1" xmlns="http://www.w3.org/2000/svg" xmlns:xlink="http://www.w3.org/1999/xlink" width="13.30273" height="21.04043" viewBox="-0.75,-0.75,13.30273,21.04043"><g transform="translate(-234.09863,-170.23012)"><g data-paper-data="{&quot;isPaintingLayer&quot;:true}" fill="#000000" fill-rule="nonzero" stroke="#000000" stroke-width="2" stroke-linecap="square" stroke-linejoin="miter" stroke-miterlimit="10" stroke-dasharray="" stroke-dashoffset="0" style="mix-blend-mode: normal"><path d="M240.02026,189.52055c-1.08031,0 -2.05259,-0.24982 -2.91683,-0.74946c-0.85074,-0.51315 -1.52594,-1.20184 -2.02558,-2.06609c-0.48614,-0.87775 -0.72921,-1.87029 -0.72921,-2.9776c0,-1.0533 0.24307,-1.99857 0.72921,-2.83581c0.49964,-0.85074 1.17483,-1.51243 2.02558,-1.98507c0.86424,-0.48614 1.83652,-0.72921 2.91683,-0.72921c1.08031,0 2.04583,0.24307 2.89658,0.72921c0.85074,0.47264 1.51918,1.13432 2.00532,1.98507c0.48614,0.83724 0.72921,1.78251 0.72921,2.83581c-0.0135,1.10731 -0.27008,2.09985 -0.76972,2.9776c-0.48614,0.86424 -1.15458,1.55294 -2.00532,2.06609c-0.85074,0.49964 -1.80276,0.74946 -2.85606,0.74946zM240.02026,187.81906c0.7022,0 1.33688,-0.1823 1.90404,-0.54691c0.56716,-0.3646 1.01279,-0.85074 1.33688,-1.45842c0.33759,-0.60767 0.50639,-1.30312 0.50639,-2.08634c0,-0.74271 -0.16205,-1.4044 -0.48614,-1.98507c-0.32409,-0.59417 -0.76972,-1.06005 -1.33688,-1.39765c-0.56716,-0.33759 -1.20859,-0.50639 -1.9243,-0.50639c-0.72921,0 -1.37739,0.1688 -1.94455,0.50639c-0.56716,0.33759 -1.01954,0.80348 -1.35714,1.39765c-0.32409,0.58066 -0.48614,1.24236 -0.48614,1.98507c0,0.78322 0.16205,1.47867 0.48614,2.08634c0.32409,0.60767 0.76972,1.09381 1.33688,1.45842c0.58066,0.3646 1.2356,0.54691 1.96481,0.54691zM240.02026,179.67624c-0.89125,0 -1.69473,-0.20256 -2.41044,-0.60767c-0.7022,-0.40512 -1.25586,-0.95202 -1.66097,-1.64072c-0.40512,-0.7022 -0.60767,-1.49217 -0.60767,-2.36993c0,-0.86424 0.20256,-1.64072 0.60767,-2.32941c0.40512,-0.6887 0.95878,-1.2356 1.66097,-1.64072c0.71571,-0.40512 1.51918,-0.60767 2.41044,-0.60767c0.87775,-0.0135 1.66773,0.17555 2.36993,0.56716c0.71571,0.39161 1.27611,0.93852 1.68123,1.64072c0.40512,0.7022 0.60092,1.49217 0.58742,2.36993c0,0.87775 -0.20931,1.66773 -0.62793,2.36993c-0.40512,0.6887 -0.95878,1.2356 -1.66097,1.64072c-0.7022,0.40512 -1.48543,0.60767 -2.34967,0.60767zM240.02026,178.05578c0.52665,0 0.99929,-0.13504 1.4179,-0.40512c0.43213,-0.27008 0.77647,-0.63468 1.03304,-1.09381c0.27008,-0.45913 0.40512,-0.96552 0.40512,-1.51918c0.0135,-0.55366 -0.10803,-1.0398 -0.3646,-1.45842c-0.24307,-0.43213 -0.58742,-0.76972 -1.03304,-1.01279c-0.43213,-0.24307 -0.91826,-0.3646 -1.45842,-0.3646c-0.82373,0 -1.50568,0.27008 -2.04583,0.81023c-0.54015,0.54015 -0.81699,1.21535 -0.83049,2.02558c-0.02701,0.85074 0.23632,1.56645 0.78998,2.14711c0.55366,0.58066 1.2491,0.871 2.08634,0.871z"/></g></g></svg>