<svg version="1.1" xmlns="http://www.w3.org/2000/svg" xmlns:xlink="http://www.w3.org/1999/xlink" width="221.00553" height="61.13115" viewBox="0,0,221.00553,61.13115"><g transform="translate(-129.49723,-149.43442)"><g data-paper-data="{&quot;isPaintingLayer&quot;:true}" fill-rule="nonzero" stroke="none" stroke-width="1" stroke-linecap="square" stroke-linejoin="miter" stroke-miterlimit="10" stroke-dasharray="" stroke-dashoffset="0" style="mix-blend-mode: normal"><path d="M154.8434,206.57812c-0.686,1.24341 -1.30771,2.14379 -1.8651,2.70117c-0.51451,0.55738 -1.17909,0.83607 -1.99371,0.83607c-0.81464,0 -1.54352,-0.2787 -2.18666,-0.83607c-0.60027,-0.55738 -1.26483,-1.43634 -1.99371,-2.63685c-0.90039,-1.50066 -1.9294,-3.60157 -3.08705,-6.30272c-1.15765,-2.74404 -2.33672,-5.70246 -3.53725,-8.87527c-1.15765,-3.21567 -2.29384,-6.53853 -3.40862,-9.9686c-1.11478,-3.43007 -2.12235,-6.64574 -3.02273,-9.64703c-0.90039,-3.04418 -1.62928,-5.70246 -2.18666,-7.97489c-0.51451,-2.27242 -0.77175,-3.90168 -0.77175,-4.88783c0,-1.02901 0.19295,-1.80078 0.57882,-2.31529c0.42874,-0.51451 1.22196,-0.77175 2.37961,-0.77175c0.686,0 1.26483,0.1715 1.73647,0.51451c0.51451,0.34301 1.15765,1.28627 1.9294,2.8298c0.60027,1.15765 1.24341,2.67972 1.9294,4.56627c0.7289,1.88653 1.47921,3.98744 2.25097,6.30272c0.81464,2.31529 1.62928,4.73775 2.44392,7.26743c0.85752,2.52967 1.6936,5.05932 2.50822,7.58899c0.81464,2.48679 1.56497,4.88783 2.25097,7.20312c0.7289,2.27242 1.41491,4.33045 2.05803,6.1741c0.60027,-1.88653 1.28627,-3.98744 2.05803,-6.30272c0.77175,-2.31529 1.56497,-4.71633 2.37961,-7.20312c0.81464,-2.48679 1.62928,-4.99501 2.44392,-7.52468c0.81464,-2.52967 1.62928,-4.90928 2.44392,-7.1388c0.81464,-2.27242 1.58639,-4.35187 2.31529,-6.23842c0.7289,-1.9294 1.37202,-3.49437 1.9294,-4.69488c0.7289,-1.50066 1.35059,-2.42247 1.8651,-2.76548c0.55738,-0.38588 1.11478,-0.57882 1.67215,-0.57882c1.15765,0 1.95085,0.30013 2.37961,0.90039c0.47164,0.60027 0.70745,1.45776 0.70745,2.57254c0,1.02901 -0.1715,2.27242 -0.51451,3.73018c-0.30013,1.41491 -0.81464,3.32286 -1.54352,5.72391c-0.7289,2.35816 -1.71502,5.29515 -2.95841,8.81095c-1.24341,3.5158 -2.76548,7.84625 -4.56627,12.99133c-0.42874,1.37202 -0.94325,2.80835 -1.54352,4.30901c-0.60027,1.45776 -1.20051,2.89411 -1.80078,4.30901c-0.55738,1.41491 -1.11478,2.76548 -1.67215,4.05176c-0.55738,1.28627 -1.09332,2.37961 -1.60784,3.27998zM192.69683,195.51618c-1.80078,0 -3.68732,-0.12863 -5.65959,-0.38588c-1.97228,-0.30013 -4.11606,-0.90039 -6.43135,-1.80078c0.47164,3.12991 1.75792,5.4881 3.85881,7.07449c2.14379,1.58639 5.20939,2.37961 9.19683,2.37961c1.45776,0 2.74404,-0.08576 3.85881,-0.25726c1.15765,-0.21438 2.16521,-0.42874 3.02273,-0.64314c0.90039,-0.25726 1.67215,-0.47164 2.31529,-0.64314c0.686,-0.1715 1.30771,-0.25726 1.8651,-0.25726c0.7289,0 1.41491,0.21438 2.05803,0.64314c0.686,0.42874 1.02901,1.15765 1.02901,2.18666c0,1.28627 -0.53596,2.33672 -1.60784,3.15136c-1.02901,0.81464 -2.31529,1.47921 -3.85881,1.99371c-1.50066,0.47164 -3.08705,0.79322 -4.7592,0.9647c-1.67215,0.1715 -3.15136,0.25726 -4.43763,0.25726c-3.04418,0 -5.83108,-0.40732 -8.36076,-1.22196c-2.52967,-0.81464 -4.71633,-2.0366 -6.55998,-3.66587c-1.84365,-1.67215 -3.28,-3.73018 -4.30901,-6.1741c-1.02901,-2.48679 -1.54352,-5.38089 -1.54352,-8.68233c0,-3.17281 0.49306,-5.98116 1.47921,-8.42508c1.02901,-2.44392 2.40104,-4.50195 4.11606,-6.1741c1.75792,-1.71502 3.81594,-3.0013 6.1741,-3.85881c2.40104,-0.90039 4.99501,-1.35059 7.78194,-1.35059c2.14379,0 4.22326,0.30013 6.23842,0.90039c2.01516,0.55738 3.7945,1.39344 5.33802,2.50822c1.58639,1.11478 2.85123,2.52967 3.7945,4.24469c0.94325,1.71502 1.41491,3.73018 1.41491,6.04547c0,2.05803 -0.38588,3.81594 -1.15765,5.27371c-0.77175,1.41491 -1.8651,2.55109 -3.28,3.40862c-1.37202,0.85752 -3.04418,1.50066 -5.01646,1.9294c-1.97228,0.38588 -4.15894,0.57882 -6.55998,0.57882zM192.11801,177.70134c-1.37202,0 -2.70117,0.1715 -3.98744,0.51451c-1.28627,0.34301 -2.46536,0.87895 -3.53725,1.60784c-1.02901,0.7289 -1.90796,1.71502 -2.63685,2.95841c-0.686,1.20051 -1.15765,2.67972 -1.41491,4.43763c1.9294,0.90039 3.81594,1.52209 5.65959,1.8651c1.84365,0.30013 3.7945,0.45019 5.85253,0.45019c3.04418,0 5.29515,-0.36443 6.75293,-1.09332c1.45776,-0.7289 2.18666,-2.07948 2.18666,-4.05176c0,-1.80078 -0.686,-3.36575 -2.05803,-4.69488c-1.37202,-1.32914 -3.64442,-1.99371 -6.81724,-1.99371zM233.52249,170.49821c1.50066,0 3.0013,0.12863 4.50195,0.38588c1.50066,0.25726 2.85123,0.62169 4.05176,1.09334c1.24341,0.42874 2.25097,0.98615 3.02273,1.67215c0.77175,0.686 1.15765,1.45776 1.15765,2.31529c0,2.22953 -1.26483,3.34431 -3.7945,3.34431c-0.64314,0 -1.24341,-0.08576 -1.80078,-0.25726c-0.51451,-0.1715 -1.1362,-0.34301 -1.8651,-0.51451c-0.686,-0.1715 -1.56497,-0.34301 -2.63685,-0.51451c-1.07188,-0.21438 -2.40104,-0.32156 -3.98744,-0.32156c-3.38717,0 -6.0026,1.15765 -7.84625,3.47293c-1.84365,2.31529 -2.76548,5.31657 -2.76548,9.0039c0,4.03031 0.92183,7.28888 2.76548,9.77565c1.88653,2.44392 4.54482,3.66587 7.97489,3.66587c2.14379,0 3.88026,-0.1715 5.20939,-0.51451c1.32914,-0.38588 2.42247,-0.81464 3.28,-1.28627c0.85752,-0.47164 1.54352,-0.87895 2.05803,-1.22196c0.55738,-0.34301 1.15765,-0.51451 1.80078,-0.51451c0.94325,0 1.67215,0.19295 2.18666,0.57882c0.55738,0.38588 0.83607,1.15765 0.83607,2.31529c0,1.24341 -0.47164,2.33672 -1.41491,3.27998c-0.94325,0.90039 -2.14379,1.6507 -3.60157,2.25097c-1.41491,0.60027 -2.95841,1.05046 -4.63058,1.35059c-1.67215,0.34301 -3.19423,0.51451 -4.56627,0.51451c-6.21697,0 -11.08336,-1.71502 -14.59917,-5.14507c-3.5158,-3.43007 -5.27371,-8.29645 -5.27371,-14.59917c0,-2.70117 0.40732,-5.27371 1.22196,-7.71763c0.85752,-2.44392 2.12235,-4.5877 3.7945,-6.43135c1.71502,-1.84365 3.81594,-3.30144 6.30272,-4.37332c2.48679,-1.07188 5.35947,-1.60784 8.61801,-1.60784zM260.81829,204.64872c-0.1715,-3.21567 -0.2787,-7.03162 -0.32156,-11.44781c0,-4.41619 0,-9.45409 0,-15.11367c-0.51451,0.04287 -1.11478,0.06431 -1.80078,0.06431c-0.686,0 -1.24341,0 -1.67215,0c-0.90039,0 -1.73647,-0.02145 -2.50822,-0.06431c-0.7289,-0.04287 -1.37202,-0.19295 -1.9294,-0.45019c-0.55738,-0.25726 -1.00757,-0.62169 -1.35059,-1.09332c-0.30013,-0.51451 -0.45019,-1.20051 -0.45019,-2.05803c0,-2.44392 1.84365,-3.66587 5.53097,-3.66587c0.55738,0 1.24341,0 2.05803,0c0.85752,0 1.56497,0.04287 2.12235,0.12863c0,-2.70117 0.04287,-4.86638 0.12863,-6.49567c0.12863,-1.62928 0.32156,-2.89411 0.57882,-3.7945c0.30013,-0.90039 0.686,-1.47921 1.15765,-1.73647c0.47164,-0.30013 1.09332,-0.45019 1.8651,-0.45019c0.81464,0 1.47921,0.2787 1.99371,0.83607c0.51451,0.55738 0.90039,1.26483 1.15765,2.12235c0.30013,0.85752 0.49306,1.84365 0.57882,2.95841c0.08576,1.07188 0.12863,2.1009 0.12863,3.08705c0,0.7289 -0.02145,1.39344 -0.06431,1.99371c0,0.60027 0,1.11478 0,1.54352c0.686,-0.1715 1.41491,-0.2787 2.18666,-0.32156c0.77175,-0.04287 1.52209,-0.06431 2.25097,-0.06431c1.88653,0 3.34431,0.30013 4.37332,0.90039c1.02901,0.60027 1.54352,1.56497 1.54352,2.89411c0,0.81464 -0.19295,1.47921 -0.57882,1.99371c-0.34301,0.47164 -0.81464,0.83607 -1.41491,1.09332c-0.55738,0.25726 -1.24341,0.42874 -2.05803,0.51451c-0.77175,0.04287 -1.62928,0.06431 -2.57254,0.06431c-0.51451,0 -1.11478,0 -1.80078,0c-0.64314,0 -1.24341,-0.04287 -1.80078,-0.12863c0,2.70117 0,5.18796 0,7.46037c0,2.22953 -0.02145,4.39477 -0.06431,6.49567c-0.04287,2.05803 -0.10718,4.11606 -0.19295,6.1741c-0.04287,2.01516 -0.10718,4.18037 -0.19295,6.49567c-0.04287,1.24341 -0.1715,2.20811 -0.38588,2.89411c-0.1715,0.64314 -0.40732,1.15765 -0.70745,1.54352c-0.30013,0.34301 -0.64314,0.55738 -1.02901,0.64314c-0.38588,0.04287 -0.83607,0.06431 -1.35059,0.06431c-0.90039,0 -1.67215,-0.32156 -2.31529,-0.9647c-0.64314,-0.64314 -1.00757,-2.01516 -1.09332,-4.11606zM301.66204,170.75548c2.91556,0 5.50952,0.45019 7.78194,1.35059c2.31529,0.85752 4.26614,2.12235 5.85253,3.7945c1.62928,1.62928 2.87266,3.623 3.73018,5.98116c0.90039,2.35816 1.35059,4.99501 1.35059,7.91057c0,3.21567 -0.51451,6.10979 -1.54352,8.68233c-0.98615,2.52967 -2.35816,4.69488 -4.11606,6.49567c-1.75792,1.80078 -3.85881,3.19423 -6.30272,4.18037c-2.40104,0.94325 -5.03789,1.41491 -7.91057,1.41491c-3.12991,0 -5.89541,-0.53596 -8.29645,-1.60784c-2.35816,-1.07188 -4.35187,-2.52967 -5.98116,-4.37332c-1.58639,-1.84365 -2.80835,-3.966 -3.66587,-6.36703c-0.81464,-2.40104 -1.22196,-4.9307 -1.22196,-7.58899c0,-2.91556 0.47164,-5.59528 1.41491,-8.03919c0.98615,-2.44392 2.35816,-4.54482 4.11606,-6.30272c1.75792,-1.75792 3.88026,-3.10849 6.36703,-4.05176c2.52967,-0.98615 5.33802,-1.47921 8.42508,-1.47921zM300.82598,203.49107c2.05803,0 3.83736,-0.36443 5.33802,-1.09334c1.50066,-0.7289 2.72262,-1.6936 3.66587,-2.89411c0.94325,-1.24341 1.62928,-2.63685 2.05803,-4.18037c0.42874,-1.58639 0.64314,-3.23712 0.64314,-4.95214c0,-1.71502 -0.21438,-3.32286 -0.64314,-4.82351c-0.42874,-1.54352 -1.09332,-2.87266 -1.99371,-3.98744c-0.90039,-1.11478 -2.05803,-1.99371 -3.47293,-2.63685c-1.41491,-0.64314 -3.08705,-0.9647 -5.01646,-0.9647c-1.97228,0 -3.70875,0.34301 -5.20939,1.02901c-1.50066,0.64314 -2.74404,1.54352 -3.73018,2.70117c-0.98615,1.15765 -1.73647,2.52967 -2.25097,4.11606c-0.51451,1.58639 -0.77175,3.30144 -0.77175,5.14507c0,3.73018 0.94325,6.75293 2.8298,9.0682c1.9294,2.31529 4.78064,3.47293 8.55369,3.47293zM327.60715,204.97027c-0.21438,-1.80078 -0.34301,-3.966 -0.38588,-6.49567c-0.04287,-2.57254 -0.06431,-5.68103 -0.06431,-9.32546c0,-3.55868 0,-6.43135 0,-8.61801c0.04287,-2.22953 0.19295,-4.18037 0.45019,-5.85253c0.25726,-2.1009 0.64314,-3.45149 1.15765,-4.05176c0.55738,-0.64314 1.26483,-0.9647 2.12235,-0.9647c0.60027,0 1.1362,0.06431 1.60784,0.19295c0.51451,0.08576 0.9647,0.30013 1.35059,0.64314c0.38588,0.30013 0.686,0.77175 0.90039,1.41491c0.21438,0.60027 0.32156,1.43634 0.32156,2.50822c0,0.21438 0.02145,0.42874 0.06431,0.64314c0,0.1715 0,0.38588 0,0.64314c0.04287,0.21438 0.06431,0.47164 0.06431,0.77175c1.37202,-1.71502 2.93698,-3.19423 4.69488,-4.43763c1.80078,-1.24341 3.81594,-1.8651 6.04547,-1.8651c3.04418,0 4.56627,1.26483 4.56627,3.7945c0,0.90039 -0.19295,1.67215 -0.57882,2.31529c-0.38588,0.60027 -0.94325,1.09334 -1.67215,1.47921c-0.686,0.38588 -1.47921,0.686 -2.37961,0.90039c-0.85752,0.1715 -1.82223,0.36443 -2.89411,0.57882c-1.67215,0.30013 -3.21567,0.87895 -4.63058,1.73647c-1.41491,0.85752 -2.37961,1.9294 -2.89411,3.21567c0,0.94325 0,1.6507 0,2.12235c0.04287,0.47164 0.06431,0.85752 0.06431,1.15765c0.04287,0.30013 0.06431,0.64314 0.06431,1.02901c0,0.34301 0,0.90039 0,1.67215c0,2.6154 -0.06431,5.05932 -0.19295,7.33173c-0.08576,2.27242 -0.1715,4.73775 -0.25726,7.39605c-0.04287,1.24341 -0.19295,2.20811 -0.45019,2.89411c-0.21438,0.64314 -0.49306,1.1362 -0.83607,1.47921c-0.34301,0.34301 -0.7289,0.55738 -1.15765,0.64314c-0.38588,0.08576 -0.77175,0.12863 -1.15765,0.12863c-1.45776,0 -2.42247,-0.32156 -2.89411,-0.9647c-0.47164,-0.64314 -0.81464,-2.01516 -1.02901,-4.11606z" fill="#eaeaea"/><path d="M153.55048,200.11349c-0.686,1.24341 -1.30771,2.14379 -1.8651,2.70117c-0.51451,0.55738 -1.17909,0.83607 -1.99371,0.83607c-0.81464,0 -1.54352,-0.2787 -2.18666,-0.83607c-0.60027,-0.55738 -1.26483,-1.43634 -1.99371,-2.63685c-0.90039,-1.50066 -1.9294,-3.60157 -3.08705,-6.30272c-1.15765,-2.74404 -2.33672,-5.70246 -3.53725,-8.87527c-1.15765,-3.21567 -2.29384,-6.53853 -3.40862,-9.9686c-1.11478,-3.43007 -2.12235,-6.64574 -3.02273,-9.64703c-0.90039,-3.04418 -1.62928,-5.70246 -2.18666,-7.97489c-0.51451,-2.27242 -0.77175,-3.90168 -0.77175,-4.88783c0,-1.02901 0.19295,-1.80078 0.57882,-2.31529c0.42874,-0.51451 1.22196,-0.77175 2.37961,-0.77175c0.686,0 1.26483,0.1715 1.73647,0.51451c0.51451,0.34301 1.15765,1.28627 1.9294,2.8298c0.60027,1.15765 1.24341,2.67972 1.9294,4.56627c0.7289,1.88653 1.47921,3.98744 2.25097,6.30272c0.81464,2.31529 1.62928,4.73775 2.44392,7.26743c0.85752,2.52967 1.6936,5.05932 2.50822,7.58899c0.81464,2.48679 1.56497,4.88783 2.25097,7.20312c0.7289,2.27242 1.41491,4.33045 2.05803,6.1741c0.60027,-1.88653 1.28627,-3.98744 2.05803,-6.30272c0.77175,-2.31529 1.56497,-4.71633 2.37961,-7.20312c0.81464,-2.48679 1.62928,-4.99501 2.44392,-7.52468c0.81464,-2.52967 1.62928,-4.90928 2.44392,-7.1388c0.81464,-2.27242 1.58639,-4.35187 2.31529,-6.23842c0.7289,-1.9294 1.37202,-3.49437 1.9294,-4.69488c0.7289,-1.50066 1.35059,-2.42247 1.8651,-2.76548c0.55738,-0.38588 1.11478,-0.57882 1.67215,-0.57882c1.15765,0 1.95085,0.30013 2.37961,0.90039c0.47164,0.60027 0.70745,1.45776 0.70745,2.57254c0,1.02901 -0.1715,2.27242 -0.51451,3.73018c-0.30013,1.41491 -0.81464,3.32286 -1.54352,5.72391c-0.7289,2.35816 -1.71502,5.29515 -2.95841,8.81095c-1.24341,3.5158 -2.76548,7.84625 -4.56627,12.99133c-0.42874,1.37202 -0.94325,2.80835 -1.54352,4.30901c-0.60027,1.45776 -1.20051,2.89411 -1.80078,4.30901c-0.55738,1.41491 -1.11478,2.76548 -1.67215,4.05176c-0.55738,1.28627 -1.09332,2.37961 -1.60784,3.27998zM191.40389,189.05155c-1.80078,0 -3.68732,-0.12863 -5.65959,-0.38588c-1.97228,-0.30013 -4.11606,-0.90039 -6.43135,-1.80078c0.47164,3.12991 1.75792,5.4881 3.85881,7.07449c2.14379,1.58639 5.20939,2.37961 9.19683,2.37961c1.45776,0 2.74404,-0.08576 3.85881,-0.25726c1.15765,-0.21438 2.16521,-0.42874 3.02273,-0.64314c0.90039,-0.25726 1.67215,-0.47164 2.31529,-0.64314c0.686,-0.1715 1.30771,-0.25726 1.8651,-0.25726c0.7289,0 1.41491,0.21438 2.05803,0.64314c0.686,0.42874 1.02901,1.15765 1.02901,2.18666c0,1.28627 -0.53596,2.33672 -1.60784,3.15136c-1.02901,0.81464 -2.31529,1.47921 -3.85881,1.99371c-1.50066,0.47164 -3.08705,0.79322 -4.7592,0.9647c-1.67215,0.1715 -3.15136,0.25726 -4.43763,0.25726c-3.04418,0 -5.83108,-0.40732 -8.36076,-1.22196c-2.52967,-0.81464 -4.71633,-2.0366 -6.55998,-3.66587c-1.84365,-1.67215 -3.28,-3.73018 -4.30901,-6.1741c-1.02901,-2.48679 -1.54352,-5.38089 -1.54352,-8.68233c0,-3.17281 0.49306,-5.98116 1.47921,-8.42508c1.02901,-2.44392 2.40104,-4.50195 4.11606,-6.1741c1.75792,-1.71502 3.81594,-3.0013 6.1741,-3.85881c2.40104,-0.90039 4.99501,-1.35059 7.78194,-1.35059c2.14379,0 4.22326,0.30013 6.23842,0.90039c2.01516,0.55738 3.7945,1.39344 5.33802,2.50822c1.58639,1.11478 2.85123,2.52967 3.7945,4.24469c0.94325,1.71502 1.41491,3.73018 1.41491,6.04547c0,2.05803 -0.38588,3.81594 -1.15765,5.27371c-0.77175,1.41491 -1.8651,2.55109 -3.28,3.40862c-1.37202,0.85752 -3.04418,1.50066 -5.01646,1.9294c-1.97228,0.38588 -4.15894,0.57882 -6.55998,0.57882zM190.82508,171.23671c-1.37202,0 -2.70117,0.1715 -3.98744,0.51451c-1.28627,0.34301 -2.46536,0.87895 -3.53725,1.60784c-1.02901,0.7289 -1.90796,1.71502 -2.63685,2.95841c-0.686,1.20051 -1.15765,2.67972 -1.41491,4.43763c1.9294,0.90039 3.81594,1.52209 5.65959,1.8651c1.84365,0.30013 3.7945,0.45019 5.85253,0.45019c3.04418,0 5.29515,-0.36443 6.75293,-1.09332c1.45776,-0.7289 2.18666,-2.07948 2.18666,-4.05176c0,-1.80078 -0.686,-3.36575 -2.05803,-4.69488c-1.37202,-1.32914 -3.64442,-1.99371 -6.81724,-1.99371zM232.22955,164.0336c1.50066,0 3.0013,0.12863 4.50195,0.38588c1.50066,0.25726 2.85123,0.62169 4.05176,1.09334c1.24341,0.42874 2.25097,0.98615 3.02273,1.67215c0.77175,0.686 1.15765,1.45776 1.15765,2.31529c0,2.22953 -1.26483,3.34431 -3.7945,3.34431c-0.64314,0 -1.24341,-0.08576 -1.80078,-0.25726c-0.51451,-0.1715 -1.1362,-0.34301 -1.8651,-0.51451c-0.686,-0.1715 -1.56497,-0.34301 -2.63685,-0.51451c-1.07188,-0.21438 -2.40104,-0.32156 -3.98744,-0.32156c-3.38717,0 -6.0026,1.15765 -7.84625,3.47293c-1.84365,2.31529 -2.76548,5.31657 -2.76548,9.0039c0,4.03031 0.92183,7.28888 2.76548,9.77565c1.88653,2.44392 4.54482,3.66587 7.97489,3.66587c2.14379,0 3.88026,-0.1715 5.20939,-0.51451c1.32914,-0.38588 2.42247,-0.81464 3.28,-1.28627c0.85752,-0.47164 1.54352,-0.87895 2.05803,-1.22196c0.55738,-0.34301 1.15765,-0.51451 1.80078,-0.51451c0.94325,0 1.67215,0.19295 2.18666,0.57882c0.55738,0.38588 0.83607,1.15765 0.83607,2.31529c0,1.24341 -0.47164,2.33672 -1.41491,3.27998c-0.94325,0.90039 -2.14379,1.6507 -3.60157,2.25097c-1.41491,0.60027 -2.95841,1.05046 -4.63058,1.35059c-1.67215,0.34301 -3.19423,0.51451 -4.56627,0.51451c-6.21697,0 -11.08336,-1.71502 -14.59917,-5.14507c-3.5158,-3.43007 -5.27371,-8.29645 -5.27371,-14.59917c0,-2.70117 0.40732,-5.27371 1.22196,-7.71763c0.85752,-2.44392 2.12235,-4.5877 3.7945,-6.43135c1.71502,-1.84365 3.81594,-3.30144 6.30272,-4.37332c2.48679,-1.07188 5.35947,-1.60784 8.61801,-1.60784zM259.52536,198.18409c-0.1715,-3.21567 -0.2787,-7.03162 -0.32156,-11.44781c0,-4.41619 0,-9.45409 0,-15.11367c-0.51451,0.04287 -1.11478,0.06431 -1.80078,0.06431c-0.686,0 -1.24341,0 -1.67215,0c-0.90039,0 -1.73647,-0.02145 -2.50822,-0.06431c-0.7289,-0.04287 -1.37202,-0.19295 -1.9294,-0.45019c-0.55738,-0.25726 -1.00757,-0.62169 -1.35059,-1.09332c-0.30013,-0.51451 -0.45019,-1.20051 -0.45019,-2.05803c0,-2.44392 1.84365,-3.66587 5.53097,-3.66587c0.55738,0 1.24341,0 2.05803,0c0.85752,0 1.56497,0.04287 2.12235,0.12863c0,-2.70117 0.04287,-4.86638 0.12863,-6.49567c0.12863,-1.62928 0.32156,-2.89411 0.57882,-3.7945c0.30013,-0.90039 0.686,-1.47921 1.15765,-1.73647c0.47164,-0.30013 1.09332,-0.45019 1.8651,-0.45019c0.81464,0 1.47921,0.2787 1.99371,0.83607c0.51451,0.55738 0.90039,1.26483 1.15765,2.12235c0.30013,0.85752 0.49306,1.84365 0.57882,2.95841c0.08576,1.07188 0.12863,2.1009 0.12863,3.08705c0,0.7289 -0.02145,1.39344 -0.06431,1.99371c0,0.60027 0,1.11478 0,1.54352c0.686,-0.1715 1.41491,-0.2787 2.18666,-0.32156c0.77175,-0.04287 1.52209,-0.06431 2.25097,-0.06431c1.88653,0 3.34431,0.30013 4.37332,0.90039c1.02901,0.60027 1.54352,1.56497 1.54352,2.89411c0,0.81464 -0.19295,1.47921 -0.57882,1.99371c-0.34301,0.47164 -0.81464,0.83607 -1.41491,1.09332c-0.55738,0.25726 -1.24341,0.42874 -2.05803,0.51451c-0.77175,0.04287 -1.62928,0.06431 -2.57254,0.06431c-0.51451,0 -1.11478,0 -1.80078,0c-0.64314,0 -1.24341,-0.04287 -1.80078,-0.12863c0,2.70117 0,5.18796 0,7.46037c0,2.22953 -0.02145,4.39477 -0.06431,6.49567c-0.04287,2.05803 -0.10718,4.11606 -0.19295,6.1741c-0.04287,2.01516 -0.10718,4.18037 -0.19295,6.49567c-0.04287,1.24341 -0.1715,2.20811 -0.38588,2.89411c-0.1715,0.64314 -0.40732,1.15765 -0.70745,1.54352c-0.30013,0.34301 -0.64314,0.55738 -1.02901,0.64314c-0.38588,0.04287 -0.83607,0.06431 -1.35059,0.06431c-0.90039,0 -1.67215,-0.32156 -2.31529,-0.9647c-0.64314,-0.64314 -1.00757,-2.01516 -1.09332,-4.11606zM300.36913,164.29084c2.91556,0 5.50952,0.45019 7.78194,1.35059c2.31529,0.85752 4.26614,2.12235 5.85253,3.7945c1.62928,1.62928 2.87266,3.623 3.73018,5.98116c0.90039,2.35816 1.35059,4.99501 1.35059,7.91057c0,3.21567 -0.51451,6.10979 -1.54352,8.68233c-0.98615,2.52967 -2.35816,4.69488 -4.11606,6.49567c-1.75792,1.80078 -3.85881,3.19423 -6.30272,4.18037c-2.40104,0.94325 -5.03789,1.41491 -7.91057,1.41491c-3.12991,0 -5.89541,-0.53596 -8.29645,-1.60784c-2.35816,-1.07188 -4.35187,-2.52967 -5.98116,-4.37332c-1.58639,-1.84365 -2.80835,-3.966 -3.66587,-6.36703c-0.81464,-2.40104 -1.22196,-4.9307 -1.22196,-7.58899c0,-2.91556 0.47164,-5.59528 1.41491,-8.03919c0.98615,-2.44392 2.35816,-4.54482 4.11606,-6.30272c1.75792,-1.75792 3.88026,-3.10849 6.36703,-4.05176c2.52967,-0.98615 5.33802,-1.47921 8.42508,-1.47921zM299.53305,197.02644c2.05803,0 3.83736,-0.36443 5.33802,-1.09334c1.50066,-0.7289 2.72262,-1.6936 3.66587,-2.89411c0.94325,-1.24341 1.62928,-2.63685 2.05803,-4.18037c0.42874,-1.58639 0.64314,-3.23712 0.64314,-4.95214c0,-1.71502 -0.21438,-3.32286 -0.64314,-4.82351c-0.42874,-1.54352 -1.09332,-2.87266 -1.99371,-3.98744c-0.90039,-1.11478 -2.05803,-1.99371 -3.47293,-2.63685c-1.41491,-0.64314 -3.08705,-0.9647 -5.01646,-0.9647c-1.97228,0 -3.70875,0.34301 -5.20939,1.02901c-1.50066,0.64314 -2.74404,1.54352 -3.73018,2.70117c-0.98615,1.15765 -1.73647,2.52967 -2.25097,4.11606c-0.51451,1.58639 -0.77175,3.30144 -0.77175,5.14507c0,3.73018 0.94325,6.75293 2.8298,9.0682c1.9294,2.31529 4.78064,3.47293 8.55369,3.47293zM326.31422,198.50566c-0.21438,-1.80078 -0.34301,-3.966 -0.38588,-6.49567c-0.04287,-2.57254 -0.06431,-5.68103 -0.06431,-9.32546c0,-3.55868 0,-6.43135 0,-8.61801c0.04287,-2.22953 0.19295,-4.18037 0.45019,-5.85253c0.25726,-2.1009 0.64314,-3.45149 1.15765,-4.05176c0.55738,-0.64314 1.26483,-0.9647 2.12235,-0.9647c0.60027,0 1.1362,0.06431 1.60784,0.19295c0.51451,0.08576 0.9647,0.30013 1.35059,0.64314c0.38588,0.30013 0.686,0.77175 0.90039,1.41491c0.21438,0.60027 0.32156,1.43634 0.32156,2.50822c0,0.21438 0.02145,0.42874 0.06431,0.64314c0,0.1715 0,0.38588 0,0.64314c0.04287,0.21438 0.06431,0.47164 0.06431,0.77175c1.37202,-1.71502 2.93698,-3.19423 4.69488,-4.43763c1.80078,-1.24341 3.81594,-1.8651 6.04547,-1.8651c3.04418,0 4.56627,1.26483 4.56627,3.7945c0,0.90039 -0.19295,1.67215 -0.57882,2.31529c-0.38588,0.60027 -0.94325,1.09334 -1.67215,1.47921c-0.686,0.38588 -1.47921,0.686 -2.37961,0.90039c-0.85752,0.1715 -1.82223,0.36443 -2.89411,0.57882c-1.67215,0.30013 -3.21567,0.87895 -4.63058,1.73647c-1.41491,0.85752 -2.37961,1.9294 -2.89411,3.21567c0,0.94325 0,1.6507 0,2.12235c0.04287,0.47164 0.06431,0.85752 0.06431,1.15765c0.04287,0.30013 0.06431,0.64314 0.06431,1.02901c0,0.34301 0,0.90039 0,1.67215c0,2.6154 -0.06431,5.05932 -0.19295,7.33173c-0.08576,2.27242 -0.1715,4.73775 -0.25726,7.39605c-0.04287,1.24341 -0.19295,2.20811 -0.45019,2.89411c-0.21438,0.64314 -0.49306,1.1362 -0.83607,1.47921c-0.34301,0.34301 -0.7289,0.55738 -1.15765,0.64314c-0.38588,0.08576 -0.77175,0.12863 -1.15765,0.12863c-1.45776,0 -2.42247,-0.32156 -2.89411,-0.9647c-0.47164,-0.64314 -0.81464,-2.01516 -1.02901,-4.11606z" fill="#ffffff"/></g></g></svg>