<svg version="1.1" xmlns="http://www.w3.org/2000/svg" xmlns:xlink="http://www.w3.org/1999/xlink" width="236.81778" height="85.50483" viewBox="0,0,236.81778,85.50483"><g transform="translate(-120.31299,-138.84525)"><g data-paper-data="{&quot;isPaintingLayer&quot;:true}" fill-rule="nonzero" stroke="none" stroke-width="1" stroke-linecap="butt" stroke-linejoin="miter" stroke-miterlimit="10" stroke-dasharray="" stroke-dashoffset="0" style="mix-blend-mode: normal"><path d="M142.35392,203.45679l-22.04093,0.31954l2.55624,-13.04578h22.68zM187.37266,223.31055h-44.71312l2.55625,-12.12281l26.26733,-49.05l-25.1964,0.31953l1.27813,-16.45672h40.61781v13.5l-18.09,49.59h17.28zM188.65439,223.56304c0,0 1.34155,-14.06296 1.34155,-21.44296v-26.46c0,-6.06 1.74,-10.68 5.22,-13.86c3.48,-3.18 8.34,-4.77 14.58,-4.77c12.66,0 18.99,6.21 18.99,18.63v4.77c0,4.8 -0.06,8.7 -0.18,11.7h-22.86v12.78c0,2.28 0.24,4.06333 0.72,5.35c0.48,1.29334 1.5,1.94 3.06,1.94c1.2,0 2.05334,-0.36 2.56,-1.08c0.51334,-0.72 0.81667,-1.54333 0.91,-2.47c0.08667,-0.93333 0.13,-2.3 0.13,-4.1v-6.39h15.66v3.78c0,7.68 -1.48334,13.33667 -4.45,16.97c-2.97333,3.62667 -8.09,5.44 -15.35,5.44c-6.78,0 -20.33156,-0.78704 -20.33156,-0.78704zM205.33642,183.98055h7.47v-8.46c0,-4.74 -1.17,-7.11 -3.51,-7.11c-2.64,0 -3.96,2.37 -3.96,7.11zM231.58017,223.94961l3.19531,-66.51906h15.75v7.29c0.78,-2.58 2.14666,-4.57667 4.1,-5.99c1.94667,-1.40667 4.36,-2.11 7.24,-2.11v13.14c-2.22,0 -4.66333,0.31667 -7.33,0.95c-2.67334,0.62667 -4.01,1.36 -4.01,2.2v50.4zM281.39548,153.02055h-15.75v-10.98h15.75zM281.39548,223.31055h-18.94531l3.19531,-65.88h15.75zM286.08392,223.33351c0,0 0.34249,-14.38249 0.34249,-21.94249v-20.34c0,-5.7 0.61667,-10.33334 1.85,-13.9c1.22667,-3.57333 3.29666,-6.26 6.21,-8.06c2.90666,-1.8 6.94,-2.7 12.1,-2.7c5.64,0 10.23,1.47 13.77,4.41c3.54,2.94 5.31,7.05 5.31,12.33v10.08h-16.02v-9.27c0,-1.74 -0.24,-3.07333 -0.72,-4c-0.48,-0.93333 -1.41,-1.4 -2.79,-1.4c-2.58,0 -3.87,1.83 -3.87,5.49v31.95c0,1.5 0.31667,2.77667 0.95,3.83c0.62667,1.04666 1.57,1.57 2.83,1.57c1.26,0 2.20666,-0.51 2.84,-1.53c0.62667,-1.02 0.91,-2.34 0.85,-3.96l-0.09,-11.07h16.02v11.52c0,5.4 -1.75333,9.64333 -5.26,12.73c-3.51333,3.09333 -8.06,4.64 -13.64,4.64c-7.2,0 -20.68249,-0.37751 -20.68249,-0.37751zM351.69876,205.37398l-22.04094,0.63906l2.23672,-12.72625h22.68z" fill="#c79030"/><path d="M144.91016,200.26149l-22.04094,0.31954l2.55625,-13.04578h22.68zM189.9289,220.11525h-44.71312l2.55625,-12.12282l26.26734,-49.05l-25.1964,0.31953l1.27813,-16.45672h40.61781v13.5l-18.09,49.59h17.28zM191.21063,220.36774c0,0 1.34155,-14.06296 1.34155,-21.44296v-26.46c0,-6.06 1.74,-10.68 5.22,-13.86c3.48,-3.18 8.34,-4.77 14.58,-4.77c12.66,0 18.99,6.21 18.99,18.63v4.77c0,4.8 -0.06,8.7 -0.18,11.7h-22.86v12.78c0,2.28 0.24,4.06333 0.72,5.35c0.48,1.29334 1.5,1.94 3.06,1.94c1.2,0 2.05334,-0.36 2.56,-1.08c0.51334,-0.72 0.81667,-1.54333 0.91,-2.47c0.08667,-0.93333 0.13,-2.3 0.13,-4.1v-6.39h15.66v3.78c0,7.68 -1.48334,13.33667 -4.45,16.97c-2.97333,3.62667 -8.09,5.44 -15.35,5.44c-6.78,0 -20.33156,-0.78704 -20.33156,-0.78704zM207.89266,180.78525h7.47v-8.46c0,-4.74 -1.17,-7.11 -3.51,-7.11c-2.64,0 -3.96,2.37 -3.96,7.11zM234.13641,220.75431l3.19531,-66.51906h15.75v7.29c0.78,-2.58 2.14667,-4.57667 4.1,-5.99c1.94667,-1.40667 4.36,-2.11 7.24,-2.11v13.14c-2.22,0 -4.66333,0.31667 -7.33,0.95c-2.67334,0.62667 -4.01,1.36 -4.01,2.2v50.4zM283.95172,149.82525h-15.75v-10.98h15.75zM283.95172,220.11525h-18.94531l3.19531,-65.88h15.75zM288.64016,220.13821c0,0 0.34249,-14.3825 0.34249,-21.9425v-20.34c0,-5.7 0.61667,-10.33334 1.85,-13.9c1.22667,-3.57334 3.29666,-6.26 6.21,-8.06c2.90666,-1.8 6.94,-2.7 12.1,-2.7c5.64,0 10.23,1.47 13.77,4.41c3.54,2.94 5.31,7.05 5.31,12.33v10.08h-16.02v-9.27c0,-1.74 -0.24,-3.07333 -0.72,-4c-0.48,-0.93333 -1.41,-1.4 -2.79,-1.4c-2.58,0 -3.87,1.83 -3.87,5.49v31.95c0,1.5 0.31667,2.77667 0.95,3.83c0.62667,1.04666 1.57,1.57 2.83,1.57c1.26,0 2.20667,-0.51 2.84,-1.53c0.62667,-1.02 0.91,-2.34 0.85,-3.96l-0.09,-11.07h16.02v11.52c0,5.4 -1.75333,9.64333 -5.26,12.73c-3.51333,3.09333 -8.06,4.64 -13.64,4.64c-7.2,0 -20.6825,-0.3775 -20.6825,-0.3775zM354.255,202.17868l-22.04094,0.63906l2.23671,-12.72625h22.68z" fill="#ffb73d"/></g></g></svg>