<svg version="1.1" xmlns="http://www.w3.org/2000/svg" xmlns:xlink="http://www.w3.org/1999/xlink" width="14.25474" height="20.9189" viewBox="0,0,14.25474,20.9189"><g transform="translate(-232.87263,-169.54055)"><g data-paper-data="{&quot;isPaintingLayer&quot;:true}" fill="#000000" fill-rule="nonzero" stroke="#000000" stroke-width="2" stroke-linecap="square" stroke-linejoin="miter" stroke-miterlimit="10" stroke-dasharray="" stroke-dashoffset="0" style="mix-blend-mode: normal"><path d="M239.98987,189.45944c-1.16133,0 -2.20113,-0.27008 -3.11939,-0.81023c-0.91826,-0.54015 -1.64747,-1.26936 -2.18762,-2.18762c-0.54015,-0.93177 -0.81023,-1.97831 -0.81023,-3.13965c0,-0.28358 0.08778,-0.51315 0.26333,-0.6887c0.17555,-0.17555 0.39161,-0.26333 0.64818,-0.26333c0.27008,0 0.49964,0.08778 0.6887,0.26333c0.18906,0.17555 0.28358,0.40512 0.28358,0.6887c0,0.79673 0.1823,1.51918 0.54691,2.16737c0.37811,0.64818 0.8845,1.16133 1.51918,1.53944c0.63468,0.3646 1.35714,0.54691 2.16737,0.54691c0.79673,0 1.51918,-0.1823 2.16737,-0.54691c0.64818,-0.37811 1.15458,-0.89125 1.51918,-1.53944c0.37811,-0.64818 0.56716,-1.37064 0.56716,-2.16737c0,-0.81023 -0.18906,-1.53268 -0.56716,-2.16737c-0.3646,-0.64818 -0.871,-1.15458 -1.51918,-1.51918c-0.64818,-0.37811 -1.37064,-0.56716 -2.16737,-0.56716h-4.23346c-0.28358,0 -0.51315,-0.09452 -0.6887,-0.28358c-0.17555,-0.18906 -0.26333,-0.41187 -0.26333,-0.66844v-6.62364c0,-0.25657 0.08778,-0.47938 0.26333,-0.66844c0.17555,-0.18906 0.40512,-0.28358 0.6887,-0.28358h8.48717c0.25657,0 0.47264,0.09452 0.64818,0.28358c0.18906,0.18906 0.28358,0.41187 0.28358,0.66844c0,0.25657 -0.08778,0.47938 -0.26333,0.66844c-0.17555,0.17555 -0.39836,0.26333 -0.66844,0.26333h-7.57566v4.73985h3.32195c1.17483,0 2.22138,0.27008 3.13965,0.81023c0.91826,0.54015 1.64747,1.27611 2.18762,2.20788c0.54015,0.93177 0.81023,1.97831 0.81023,3.13965c0,1.16133 -0.27008,2.20788 -0.81023,3.13965c-0.54015,0.91826 -1.26936,1.64747 -2.18762,2.18762c-0.91826,0.54015 -1.96481,0.81023 -3.13965,0.81023z"/></g></g></svg>