<svg version="1.1" xmlns="http://www.w3.org/2000/svg" xmlns:xlink="http://www.w3.org/1999/xlink" width="135.1187" height="43.8447" viewBox="0,0,135.1187,43.8447"><g transform="translate(-173.41367,-159.06184)"><g data-paper-data="{&quot;isPaintingLayer&quot;:true}" fill-rule="nonzero" stroke="none" stroke-linecap="butt" stroke-linejoin="miter" stroke-miterlimit="10" stroke-dasharray="" stroke-dashoffset="0" style="mix-blend-mode: normal"><path d="M178.15389,200.47897c-4.01254,-4.05187 -3.72264,-34.65422 0,-37.49123c3.41609,-2.6034 123.51498,-3.5609 127.56615,0c4.26194,3.74616 3.2002,35.037 0,37.65009c-3.35022,2.7356 -124.08277,3.35865 -127.56615,-0.15886z" fill="#000000" stroke-width="0"/><path d="M176.31538,198.99049c-4.01254,-4.05186 -3.72264,-34.65422 0,-37.49123c3.41609,-2.6034 123.51497,-3.5609 127.56615,0c4.26194,3.74616 3.2002,35.037 0,37.65009c-3.35022,2.7356 -124.08277,3.35865 -127.56615,-0.15886z" fill="#c77f0a" stroke-width="0"/><text transform="translate(204.82039,189.24876) scale(0.77073,0.77073)" font-size="40" xml:space="preserve" fill="#000000" fill-rule="nonzero" stroke="none" stroke-width="1" stroke-linecap="butt" stroke-linejoin="miter" stroke-miterlimit="10" stroke-dasharray="" stroke-dashoffset="0" font-family="Curly" font-weight="normal" text-anchor="start" style="mix-blend-mode: normal"><tspan x="0" dy="0">Retry</tspan></text></g></g></svg>