<svg version="1.1" xmlns="http://www.w3.org/2000/svg" xmlns:xlink="http://www.w3.org/1999/xlink" width="579" height="492.89231" viewBox="0,0,579,492.89231"><g transform="translate(49.5,66.44616)"><g data-paper-data="{&quot;isPaintingLayer&quot;:true}" fill-rule="nonzero" stroke="none" stroke-width="0" stroke-linecap="butt" stroke-linejoin="miter" stroke-miterlimit="10" stroke-dasharray="" stroke-dashoffset="0" style="mix-blend-mode: normal"><path d="M128.29999,185.06666v-9h111.6v9z" fill="#000000"/><path d="M228.6,180c0,-6.29605 5.10395,-11.4 11.4,-11.4c6.29605,0 11.4,5.10395 11.4,11.4c0,6.29605 -5.10395,11.4 -11.4,11.4c-6.29605,0 -11.4,-5.10395 -11.4,-11.4z" fill="#000000"/><path d="M87.77412,180c0,-17.79786 14.42802,-32.22588 32.22588,-32.22588c17.79786,0 32.22588,14.42802 32.22588,32.22588c0,17.79786 -14.42802,32.22588 -32.22588,32.22588c-17.79786,0 -32.22588,-14.42802 -32.22588,-32.22588z" fill="#cd820a"/><path d="M99.02448,163.43464c4.33354,-5.66985 10.65245,-8.06662 17.19315,-9.04793c6.82308,-1.02368 13.89963,-0.41635 19.81425,4.10427c5.73838,4.38592 10.34296,11.55569 11.27632,18.18402c0.95088,6.75275 -1.86442,12.97729 -6.33266,18.82338c-4.06698,5.32109 -13.53163,10.21525 -19.62325,11.41764c-7.17037,1.41532 -11.12077,-1.68679 -17.38416,-6.47398c-2.40654,-1.83935 -8.09783,-8.12389 -9.68034,-10.51525c-6.03527,-9.12002 -2.27813,-17.31423 4.73668,-26.49216z" fill="#e40000"/><path d="M-49.5,426.44615v-492.89231h579v492.89231z" fill="none"/><path d="M98.13391,178.72069c0,-6.75238 3.52242,-11.55357 8.46313,-15.40873c3.57214,-2.78729 7.72077,-5.65716 12.60276,-5.65716c5.9144,0 12.98692,1.40091 16.81312,5.32595c3.70042,3.79601 4.25276,10.01996 4.25276,15.73993c0,4.62862 -4.42936,13.74528 -6.95976,17.2214c-3.82994,5.26135 -11.41886,6.0901 -17.56091,5.2264c-3.68405,-0.51805 -7.7006,-6.19479 -10.73405,-7.88721c-6.45297,-3.60023 -6.87704,-6.64651 -6.87704,-14.56058z" fill="#fff700"/><path d="M124.86797,164.24711c0,2.34097 -2.0729,4.23869 -4.62996,4.23869c-2.55705,0 -4.62996,-1.89773 -4.62996,-4.23869c0,-2.34097 2.0729,-4.23869 4.62996,-4.23869c2.55705,0 4.62996,1.89773 4.62996,4.23869z" fill="#cb0000"/><path d="M111.19074,181.01694c0,3.09055 -2.07343,5.59594 -4.63112,5.59594c-2.5577,0 -4.63112,-2.50539 -4.63112,-5.59594c0,-3.09055 2.07343,-5.59594 4.63112,-5.59594c2.5577,0 4.63112,2.50539 4.63112,5.59594z" fill="#cb0000"/><path d="M137.17757,177.85849c0,2.3774 -1.97935,4.30466 -4.421,4.30466c-2.44165,0 -4.421,-1.92726 -4.421,-4.30466c0,-2.3774 1.97935,-4.30466 4.421,-4.30466c2.44165,0 4.421,1.92726 4.421,4.30466z" fill="#cb0000"/><path d="M133.67033,190.22496c0,2.06242 -1.58235,3.73433 -3.53428,3.73433c-1.95193,0 -3.53428,-1.67192 -3.53428,-3.73433c0,-2.06242 1.58235,-3.73433 3.53428,-3.73433c1.95193,0 3.53428,1.67192 3.53428,3.73433z" fill="#cb0000"/><path d="M117.19925,189.42474c3.71972,0 6.73514,1.76149 6.73514,3.93439c0,2.17291 -3.01543,3.93439 -6.73514,3.93439c-3.71972,0 -6.73514,-1.76149 -6.73514,-3.93439c0,-2.17291 3.01543,-3.93439 6.73514,-3.93439z" fill="#cb0000"/><path d="M123.66765,178.08838c0,3.16728 -1.64206,5.73487 -3.66765,5.73487c-2.02559,0 -3.66765,-2.56759 -3.66765,-5.73487c0,-3.16728 1.64206,-5.73487 3.66765,-5.73487c2.02559,0 3.66765,2.56759 3.66765,5.73487z" fill="#cb0000"/></g></g></svg>