<svg version="1.1" xmlns="http://www.w3.org/2000/svg" xmlns:xlink="http://www.w3.org/1999/xlink" width="527.02703" height="396.3964" viewBox="0,0,527.02703,396.3964"><g transform="translate(23.51352,18.1982)"><g data-paper-data="{&quot;isPaintingLayer&quot;:true}" fill-rule="nonzero" stroke="none" stroke-linecap="butt" stroke-linejoin="miter" stroke-miterlimit="10" stroke-dasharray="" stroke-dashoffset="0" style="mix-blend-mode: normal"><path d="M173.81466,206.10918c-4.28971,-5.22545 -3.97978,-44.69142 0,-48.35013c3.65206,-3.35744 132.04679,-4.59227 136.37779,0c4.55633,4.83119 3.42125,45.18506 0,48.55501c-3.58164,3.52793 -132.6538,4.33145 -136.37779,-0.20487z" fill="#000000" stroke-width="0"/><path d="M171.84915,204.18958c-4.28971,-5.22544 -3.97978,-44.69142 0,-48.35014c3.65206,-3.35744 132.04678,-4.59227 136.37779,0c4.55633,4.83119 3.42125,45.18506 0,48.55501c-3.58164,3.52793 -132.6538,4.33145 -136.37779,-0.20487z" fill="#c77f0a" stroke-width="0"/><text transform="translate(213.06952,189.24879) scale(0.77073,0.77073)" font-size="40" xml:space="preserve" fill="#000000" fill-rule="nonzero" stroke="none" stroke-width="1" stroke-linecap="butt" stroke-linejoin="miter" stroke-miterlimit="10" stroke-dasharray="" stroke-dashoffset="0" font-family="Curly" font-weight="normal" text-anchor="start" style="mix-blend-mode: normal"><tspan x="0" dy="0">Play</tspan></text><path d="M-23.51351,378.1982v-396.3964h527.02703v396.3964z" fill="none" stroke-width="0"/></g></g></svg>