<svg version="1.1" xmlns="http://www.w3.org/2000/svg" xmlns:xlink="http://www.w3.org/1999/xlink" width="574.32159" height="436.56756" viewBox="0,0,574.32159,436.56756"><g transform="translate(66.82159,19.33329)"><g data-paper-data="{&quot;isPaintingLayer&quot;:true}" fill-rule="nonzero" stroke-linecap="butt" stroke-linejoin="miter" stroke-miterlimit="10" stroke-dasharray="" stroke-dashoffset="0" style="mix-blend-mode: normal"><path d="M-27.5,377.50004v-395h535v395z" fill="#ffa10e" stroke="none" stroke-width="0"/><path d="M173.11953,194.34257l15.55635,-15.55635l50.20458,50.20458l-15.55635,15.55635z" fill="#fff700" stroke="none" stroke-width="0"/><g stroke="none" stroke-width="0"><path d="M-23.18749,101.5389c22.66254,-10.66975 49.6837,-0.94765 60.35344,21.71488c10.66975,22.66253 0.94766,49.6837 -21.71487,60.35343c-22.66253,10.66975 -49.6837,0.94766 -60.35343,-21.71488c-10.66975,-22.66253 -0.94766,-49.6837 21.71488,-60.35343z" fill="#c77f0a"/><path d="M4.6502,105.93345c9.81753,2.11898 16.65755,8.72817 21.82821,16.46835c5.39389,8.07434 8.86292,17.4492 6.65248,27.69056c-2.14459,9.93618 -8.51364,20.09758 -16.39414,25.25971c-8.02843,5.25903 -17.64207,5.4058 -27.76476,3.22098c-9.21364,-1.98863 -21.11954,-11.10622 -26.30247,-18.14203c-6.10078,-8.28177 -4.51902,-15.17163 -2.17823,-26.01687c0.89938,-4.167 5.48977,-15.18143 7.58606,-18.6301c7.99467,-13.15229 20.68099,-13.28062 36.57287,-9.85059z" fill="#e40000"/><path d="M-15.34786,113.96338c8.59801,-4.04802 16.82318,-2.44111 24.694,1.53889c5.69062,2.87754 11.83199,6.43964 14.75872,12.65602c3.54565,7.53098 6.00178,17.37646 3.29771,24.60152c-2.61518,6.98755 -10.20919,11.42209 -17.4926,14.85119c-5.89375,2.77483 -20.15766,2.60021 -26.10086,1.46209c-8.99547,-1.72262 -14.60026,-10.88898 -17.18261,-19.22762c-1.54892,-5.00158 3.27154,-13.51915 3.608,-18.39632c0.71574,-10.37508 4.34044,-12.74129 14.41766,-17.48573z" fill="#fff700"/><path d="M19.10873,139.3278c-2.98082,1.4034 -6.63994,-0.09841 -8.17289,-3.35439c-1.53294,-3.25597 -0.35921,-7.03315 2.62161,-8.43653c2.98082,-1.4034 6.63994,0.09841 8.17289,3.35439c1.53293,3.25597 0.35921,7.03315 -2.62161,8.43653z" fill="#cb0000"/><path d="M-10.44423,131.96562c-3.93529,1.85277 -8.36849,0.71457 -9.90182,-2.5422c-1.53333,-3.2568 0.41384,-7.39892 4.34914,-9.25168c3.93529,-1.85277 8.36849,-0.71457 9.90181,2.5422c1.53333,3.2568 -0.41384,7.39892 -4.34913,9.25169z" fill="#cb0000"/><path d="M9.15652,163.16193c-3.02721,1.42524 -6.66787,0.06026 -8.13162,-3.04875c-1.46376,-3.10902 -0.19633,-6.78477 2.83088,-8.21001c3.02721,-1.42524 6.66786,-0.06026 8.13163,3.04876c1.46376,3.10902 0.19633,6.78477 -2.83088,8.21001z" fill="#cb0000"/><path d="M-8.69265,166.10971c-2.62614,1.23641 -5.70364,0.22385 -6.87382,-2.26159c-1.17018,-2.48544 0.01012,-5.5026 2.63625,-6.73901c2.62615,-1.23641 5.70364,-0.22386 6.87382,2.26158c1.17018,2.48544 -0.01012,5.50261 -2.63625,6.73902z" fill="#cb0000"/><path d="M-17.54804,144.65688c2.22996,4.73644 1.79473,9.63206 -0.97209,10.9347c-2.76683,1.30265 -6.81751,-1.48099 -9.04746,-6.21739c-2.22996,-4.73643 -1.79473,-9.63206 0.97209,-10.93471c2.76683,-1.30265 6.81751,1.48099 9.04746,6.2174z" fill="#cb0000"/><path d="M0.76465,146.09717c-4.03299,1.89878 -8.28678,1.34715 -9.50111,-1.23209c-1.21433,-2.57925 1.07065,-6.20938 5.10364,-8.10816c4.03299,-1.89878 8.28679,-1.34715 9.50112,1.23209c1.21433,2.57925 -1.07065,6.20938 -5.10364,8.10816z" fill="#cb0000"/></g><path d="M56.24948,341.97356l-15.55635,-15.55635l135.05739,-135.05739l15.55635,15.55635z" fill="#fff700" stroke="none" stroke-width="0"/><path d="M-23.5,112.66671v-132h523v132z" fill="#c77f0a" stroke="none" stroke-width="0"/><text transform="translate(33.05623,81.4215) scale(1.95179,1.95179)" font-size="40" xml:space="preserve" fill="#000000" fill-rule="nonzero" stroke="#000000" stroke-width="2" stroke-linecap="butt" stroke-linejoin="miter" stroke-miterlimit="10" stroke-dasharray="" stroke-dashoffset="0" font-family="Sans Serif" font-weight="normal" text-anchor="start" style="mix-blend-mode: normal"><tspan x="0" dy="0">Pizza Craze</tspan></text><text transform="translate(31.05648,79.42145) scale(1.95179,1.95179)" font-size="40" xml:space="preserve" fill="#ffa10e" fill-rule="nonzero" stroke="#ffa10e" stroke-width="2" stroke-linecap="butt" stroke-linejoin="miter" stroke-miterlimit="10" stroke-dasharray="" stroke-dashoffset="0" font-family="Sans Serif" font-weight="normal" text-anchor="start" style="mix-blend-mode: normal"><tspan x="0" dy="0">Pizza Craze</tspan></text><path d="M207.41189,247.12218l33.89741,-33.89741l32.9161,67.85582z" fill="#4c4c4c" stroke="none" stroke-width="0"/><path d="M-66.82159,228.40145l15.55635,-15.55635l118.08683,118.08683l-15.55635,15.55635z" fill="#fff700" stroke="none" stroke-width="0"/><g stroke="none" stroke-width="0"><path d="M168.11462,330.05483c23.09272,-9.7036 49.67942,1.15042 59.38302,24.24315c9.7036,23.09272 -1.15042,49.67943 -24.24315,59.38303c-23.09271,9.7036 -49.67942,-1.15042 -59.38302,-24.24315c-9.7036,-23.09271 1.15042,-49.67942 24.24315,-59.38302z" fill="#c77f0a"/><path d="M195.74203,335.62056c9.71932,2.5315 19.78032,8.5611 24.61963,16.51265c5.04826,8.29483 4.61243,18.67021 1.97164,28.80912c-2.56209,9.83681 -7.45824,16.48031 -15.54963,21.30518c-8.24326,4.91546 -17.11725,4.95729 -27.13869,2.3471c-9.12149,-2.37578 -18.99268,0.15025 -23.87401,-7.09807c-5.74575,-8.5319 -5.76793,-15.97846 -10.36453,-26.86627c-1.63903,-3.79952 4.16975,-17.16832 12.58418,-22.30552c6.51581,-5.02895 22.01848,-16.80202 37.75139,-12.70421z" fill="#e40000"/><path d="M199.17196,348.18276c5.56409,3.11518 14.85497,6.56243 17.5167,12.89682c3.22459,7.67394 -2.90973,12.70085 -5.91638,19.80532c-2.90782,6.87093 -4.95703,13.46165 -12.37869,16.58025c-6.00564,2.52359 -20.24944,1.747 -26.13932,0.35902c-8.91473,-2.10079 -18.57438,-6.57301 -20.80244,-15.01322c-1.33642,-5.0625 -0.66727,-13.91855 -0.12523,-18.77719c1.15306,-10.33562 13.36381,-17.53919 23.63231,-21.85404c10.26852,-4.31484 16.51724,1.69435 24.21305,6.00304z" fill="#fff700"/><path d="M179.93385,358.50531c-4.5874,1.92762 -9.25032,1.24349 -10.41494,-1.52805c-1.1646,-2.77154 1.61011,-6.581 6.19751,-8.50862c4.5874,-1.92762 9.25032,-1.2435 10.41494,1.52805c1.1646,2.77154 -1.61011,6.581 -6.19751,8.50864z" fill="#cb0000"/><path d="M199.89569,365.79457c-1.80715,-4.30069 -0.7542,-8.84513 2.35186,-10.15031c3.10605,-1.30518 7.089,1.12318 8.89615,5.42388c1.80715,4.30069 0.7542,8.84513 -2.35184,10.15031c-3.10605,1.30518 -7.089,-1.12318 -8.89617,-5.42388z" fill="#cb0000"/><path d="M196.33879,392.94293c-4.15733,1.74692 -8.39022,1.10997 -9.45445,-1.42267c-1.06421,-2.53262 1.44324,-6.00188 5.60057,-7.7488c4.15733,-1.74692 8.39024,-1.10997 9.45445,1.42267c1.06421,2.53262 -1.44324,6.00188 -5.60058,7.7488z" fill="#cb0000"/><path d="M168.92407,380.03052c3.87062,-1.62644 8.09898,-0.3495 9.44431,2.85212c1.34533,3.20163 -0.70182,7.11553 -4.57244,8.74198c-3.87062,1.62644 -8.09898,0.3495 -9.44431,-2.85211c-1.34533,-3.20163 0.70182,-7.11554 4.57244,-8.74198z" fill="#cb0000"/><path d="M186.67384,374.78749c-3.10605,1.30518 -6.59873,0.04354 -7.80112,-2.81792c-1.20238,-2.86146 0.34084,-6.23917 3.44688,-7.54433c3.10605,-1.30518 6.59873,-0.04354 7.80112,2.8179c1.20238,2.86146 -0.34084,6.23917 -3.44688,7.54434z" fill="#cb0000"/><path d="M164.26109,375.47468c-2.38926,1.00396 -5.57953,-1.16494 -7.12566,-4.84443c-1.54612,-3.67948 -0.86262,-7.47617 1.52666,-8.48015c2.38926,-1.00396 5.57953,1.16494 7.12565,4.84443c1.54612,3.67948 0.86263,7.47617 -1.52666,8.48015z" fill="#cb0000"/></g><g stroke="none" stroke-width="0"><path d="M343.67136,137.48425c19.13376,-16.16581 47.74971,-13.75981 63.91552,5.37394c16.16581,19.13376 13.75981,47.74971 -5.37394,63.91552c-19.13376,16.16581 -47.74971,13.75981 -63.91552,-5.37394c-16.16581,-19.13376 -13.75981,-47.74971 5.37394,-63.91552z" fill="#c77f0a"/><path d="M402.04841,142.28877c7.29793,6.40541 9.68074,10.55012 10.19306,21.01477c0.49705,10.15284 -3.64654,22.62893 -9.92462,29.65287c-6.39592,7.15578 -13.42455,18.22765 -23.76795,18.73404c-9.41453,0.4609 -16.7412,1.00773 -23.56687,-4.44899c-8.0344,-6.42303 -11.17744,-10.8003 -18.81986,-19.81509c-2.70033,-3.13542 -6.87895,-28.76635 -0.38602,-36.18493c4.71358,-6.74746 25.40703,-25.43517 41.29442,-21.98445c13.78861,2.99488 17.98193,6.89145 24.97782,13.03176z" fill="#e40000"/><path d="M400.46768,154.52488c4.10388,7.18406 6.84602,7.08612 5.6569,20.055c-0.33655,10.78818 -13.16591,23.13663 -19.31521,28.33209c-4.97604,4.20418 -12.70395,6.50406 -18.73935,6.94109c-9.135,0.66147 -19.3517,-11.07787 -24.002,-18.46543c-2.78929,-4.43112 -4.30248,-14.23894 -5.23831,-19.03731c-1.99077,-10.20741 7.50674,-20.73315 16.01484,-27.9215c8.5081,-7.18836 14.96243,-11.55762 23.59461,-9.74771c8.63218,1.80991 18.62043,13.8777 22.02853,19.84377z" fill="#fff700"/><path d="M382.14234,151.9466c-2.2568,1.90674 -6.41846,0.69216 -9.29531,-2.71286c-2.87685,-3.40501 -3.37949,-7.71105 -1.12267,-9.6178c2.2568,-1.90674 6.41847,-0.69215 9.29531,2.71286c2.87685,3.40501 3.37948,7.71104 1.12266,9.61779z" fill="#cb0000"/><path d="M395.32428,167.83951c-3.12786,2.64269 -7.10075,3.08388 -8.87369,0.98544c-1.77294,-2.09844 -0.67455,-5.94188 2.45331,-8.58456c3.12786,-2.64268 7.10075,-3.08388 8.87369,-0.98544c1.77294,2.09844 0.67455,5.94188 -2.45331,8.58456z" fill="#cb0000"/><path d="M383.84657,179.99412c2.69234,-2.27471 7.09859,-1.4868 9.84161,1.75983c2.74304,3.24665 2.78413,7.72259 0.0918,9.9973c-2.69234,2.27471 -7.09859,1.4868 -9.84162,-1.75983c-2.74304,-3.24665 -2.78413,-7.72259 -0.09179,-9.9973z" fill="#cb0000"/><path d="M372.43842,202.41055c-3.28623,2.77649 -7.74004,2.90891 -9.94786,0.29575c-2.20781,-2.61315 -1.33357,-6.98231 1.95267,-9.75881c3.28623,-2.77649 7.74004,-2.90891 9.94785,-0.29575c2.20781,2.61315 1.33358,6.98232 -1.95266,9.75881z" fill="#cb0000"/><path d="M357.36275,183.69454c-2.57355,2.17435 -6.74792,1.46558 -9.3237,-1.58309c-2.57578,-3.04868 -2.57758,-7.28279 -0.00403,-9.45714c2.57355,-2.17435 6.74792,-1.46558 9.3237,1.5831c2.57578,3.04868 2.57758,7.28278 0.00403,9.45713z" fill="#cb0000"/><path d="M360.75134,162.40195c-3.12786,2.64269 -7.42616,2.69872 -9.60052,0.12517c-2.17435,-2.57355 -1.40139,-6.80215 1.72647,-9.44484c3.12786,-2.64268 7.42616,-2.69871 9.60052,-0.12516c2.17435,2.57355 1.40139,6.80215 -1.72647,9.44483z" fill="#cb0000"/><path d="M377.74489,166.22825c-2.96949,2.50887 -7.08517,2.52063 -9.19261,0.02627c-2.10746,-2.49437 -1.40863,-6.55031 1.56086,-9.05918c2.96949,-2.50887 7.08517,-2.52063 9.19262,-0.02626c2.10746,2.49437 1.40863,6.5503 -1.56086,9.05917z" fill="#cb0000"/><path d="M368.56624,177.17763c1.7817,-1.50532 4.6904,-0.99241 6.49679,1.14561c1.80639,2.13804 1.82641,5.09155 0.04472,6.59688c-1.7817,1.50532 -4.69041,0.9924 -6.4968,-1.14562c-1.80639,-2.13804 -1.8264,-5.09155 -0.04471,-6.59687z" fill="#cb0000"/></g></g></g></svg>