<svg version="1.1" xmlns="http://www.w3.org/2000/svg" xmlns:xlink="http://www.w3.org/1999/xlink" width="89.02338" height="34.75797" viewBox="0,0,89.02338,34.75797"><g transform="translate(-196.46133,-163.66121)"><g data-paper-data="{&quot;isPaintingLayer&quot;:true}" fill-rule="nonzero" stroke="none" stroke-linecap="butt" stroke-linejoin="miter" stroke-miterlimit="10" stroke-dasharray="" stroke-dashoffset="0" style="mix-blend-mode: normal"><path d="M199.58444,196.48979c-2.64368,-3.22036 -2.45267,-27.54258 0,-29.79738c2.2507,-2.06913 81.37823,-2.83014 84.04736,0c2.80799,2.97738 2.10846,27.8468 0,29.92364c-2.2073,2.1742 -81.75232,2.6694 -84.04736,-0.12626z" fill="#000000" stroke-width="0"/><path d="M198.37313,195.30678c-2.64368,-3.22035 -2.45267,-27.54258 0,-29.79738c2.2507,-2.06913 81.37823,-2.83014 84.04736,0c2.80799,2.97738 2.10846,27.8468 0,29.92364c-2.2073,2.1742 -81.75232,2.6694 -84.04736,-0.12626z" fill="#c77f0a" stroke-width="0"/><text transform="translate(219.12105,186.45822) scale(0.51939,0.51939)" font-size="40" xml:space="preserve" fill="#000000" fill-rule="nonzero" stroke="none" stroke-width="1" stroke-linecap="butt" stroke-linejoin="miter" stroke-miterlimit="10" stroke-dasharray="" stroke-dashoffset="0" font-family="Curly" font-weight="normal" text-anchor="start" style="mix-blend-mode: normal"><tspan x="0" dy="0">Back</tspan></text></g></g></svg>