<svg version="1.1" xmlns="http://www.w3.org/2000/svg" xmlns:xlink="http://www.w3.org/1999/xlink" width="517" height="440.11282" viewBox="0,0,517,440.11282"><g transform="translate(18.5,40.05641)"><g data-paper-data="{&quot;isPaintingLayer&quot;:true}" fill-rule="nonzero" stroke="none" stroke-width="0" stroke-linecap="butt" stroke-linejoin="miter" stroke-miterlimit="10" stroke-dasharray="" stroke-dashoffset="0" style="mix-blend-mode: normal"><path d="M207.77412,180c0,-17.79786 14.42802,-32.22588 32.22588,-32.22588c17.79786,0 32.22588,14.42802 32.22588,32.22588c0,17.79786 -14.42802,32.22588 -32.22588,32.22588c-17.79786,0 -32.22588,-14.42802 -32.22588,-32.22588z" fill="#c77f0a"/><path d="M237.15122,150.51901c6.82308,-1.02368 10.16529,-0.41635 16.07991,4.10427c5.73838,4.38592 10.6097,12.35591 11.54306,18.98424c0.95088,6.75275 3.73708,15.64467 -0.73116,21.49076c-4.06698,5.32109 -7.12992,9.5484 -13.22154,10.75079c-7.17037,1.41532 -10.9874,1.11396 -19.3847,1.12806c-2.94002,0.02782 -18.76736,-9.45758 -19.81639,-16.38349c-1.50072,-5.65242 -2.15427,-25.45325 7.00395,-32.49377c7.94839,-6.11044 11.98615,-6.59955 18.52685,-7.58086z" fill="#e40000"/><path d="M142.5,263v-166h195v166z" fill="none"/><path d="M243.06751,156.98796c5.78103,1.06695 6.98531,-0.46626 13.47889,6.12616c5.70096,5.1297 6.52004,17.75536 6.52004,23.47533c0,4.62862 -2.29546,9.87758 -4.82586,13.3537c-3.82994,5.26135 -14.88645,5.42326 -21.0285,4.55956c-3.68405,-0.51805 -9.70114,-4.19425 -12.73459,-5.88667c-6.45297,-3.60023 -7.81062,-13.5817 -7.81062,-21.49577c0,-7.91407 0.58829,-13.42074 5.529,-17.2759c4.94071,-3.85516 16.07073,-3.74247 20.87164,-2.85641z" fill="#fff700"/><path d="M233.26486,165.75174c0,2.09924 -2.56759,3.80102 -5.73487,3.80102c-3.16728,0 -5.73487,-1.70177 -5.73487,-3.80102c0,-2.09924 2.56759,-3.80102 5.73487,-3.80102c3.16728,0 5.73487,1.70177 5.73487,3.80102z" fill="#cb0000"/><path d="M247.93546,165.88511c0,2.90948 -1.58235,5.26808 -3.53428,5.26808c-1.95193,0 -3.53428,-2.3586 -3.53428,-5.26808c0,-2.90948 1.58235,-5.26808 3.53428,-5.26808c1.95193,0 3.53428,2.3586 3.53428,5.26808z" fill="#cb0000"/><path d="M249.26915,177.68827c0,-2.50436 2.44817,-4.53455 5.46813,-4.53455c3.01997,0 5.46813,2.03019 5.46813,4.53455c0,2.50436 -2.44817,4.53455 -5.46813,4.53455c-3.01997,0 -5.46813,-2.03019 -5.46813,-4.53455z" fill="#cb0000"/><path d="M256.20434,194.15935c0,3.05679 -1.97047,5.53482 -4.40118,5.53482c-2.4307,0 -4.40118,-2.47802 -4.40118,-5.53482c0,-3.05679 1.97047,-5.53482 4.40118,-5.53482c2.4307,0 4.40118,2.47802 4.40118,5.53482z" fill="#cb0000"/><path d="M239.1331,193.75924c0,2.39387 -2.29889,4.33449 -5.13471,4.33449c-2.83582,0 -5.13471,-1.94062 -5.13471,-4.33449c0,-2.39387 2.29889,-4.33449 5.13471,-4.33449c2.83582,0 5.13471,1.94062 5.13471,4.33449z" fill="#cb0000"/><path d="M229.13042,182.15613c0,2.90948 -1.94062,5.26808 -4.33449,5.26808c-2.39387,0 -4.33449,-2.3586 -4.33449,-5.26808c0,-2.90948 1.94062,-5.26808 4.33449,-5.26808c2.39387,0 4.33449,2.3586 4.33449,5.26808z" fill="#cb0000"/><path d="M238.99973,174.68747c0,2.76216 -1.88091,5.00134 -4.20112,5.00134c-2.32022,0 -4.20112,-2.23918 -4.20112,-5.00134c0,-2.76216 1.88091,-5.00134 4.20112,-5.00134c2.32022,0 4.20112,2.23918 4.20112,5.00134z" fill="#cb0000"/><path d="M240.73353,184.69014c0,-1.6573 1.61221,-3.0008 3.60096,-3.0008c1.98876,0 3.60096,1.34351 3.60096,3.0008c0,1.6573 -1.61221,3.0008 -3.60096,3.0008c-1.98876,0 -3.60096,-1.34351 -3.60096,-3.0008z" fill="#cb0000"/><path d="M-18.5,400.05641v-440.11282h517v440.11282z" fill="none"/></g></g></svg>