<svg version="1.1" xmlns="http://www.w3.org/2000/svg" xmlns:xlink="http://www.w3.org/1999/xlink" width="517" height="440.11282" viewBox="0,0,517,440.11282"><g transform="translate(18.5,40.05641)"><g data-paper-data="{&quot;isPaintingLayer&quot;:true}" fill-rule="nonzero" stroke="none" stroke-width="0" stroke-linecap="butt" stroke-linejoin="miter" stroke-miterlimit="10" stroke-dasharray="" stroke-dashoffset="0" style="mix-blend-mode: normal"><path d="M207.77412,180c0,-17.79786 14.42802,-32.22588 32.22588,-32.22588c17.79786,0 32.22588,14.42802 32.22588,32.22588c0,17.79786 -14.42802,32.22588 -32.22588,32.22588c-17.79786,0 -32.22588,-14.42802 -32.22588,-32.22588z" fill="#cd820a"/><path d="M219.02448,163.43464c4.33354,-5.66985 11.05256,-10.60063 17.59326,-11.58194c6.82308,-1.02368 13.49952,2.11766 19.41414,6.63828c5.73838,4.38592 8.74253,9.42179 9.67589,16.05012c0.95088,6.75275 -1.46431,12.57718 -5.93255,18.42327c-4.06698,5.32109 -5.12938,12.48252 -11.221,13.68491c-7.17037,1.41532 -12.05435,-0.61984 -20.45165,-0.60574c-2.94002,0.02782 -10.09837,-7.45704 -11.1474,-14.38295c-1.50072,-5.65242 -4.94551,-19.04803 2.0693,-28.22596z" fill="#e40000"/><path d="M142.5,263v-166h195v166z" fill="none"/><path d="M228.19747,164.64565c3.57214,-2.78729 8.38762,-7.92443 13.26961,-7.92443c5.9144,0 7.51879,5.40198 11.34499,9.32702c3.70042,3.79601 7.45362,6.95247 7.45362,12.67244c0,4.62862 -4.42936,13.74528 -6.95976,17.2214c-3.82994,5.26135 -9.41832,10.35791 -15.56037,9.49421c-3.68405,-0.51805 -9.30103,-3.39404 -12.33448,-5.08646c-6.45297,-3.60023 -7.81062,-13.5817 -7.81062,-21.49577c0,-7.91407 5.65631,-10.35325 10.59702,-14.20841z" fill="#fff700"/><path d="M229.6639,180.08891c0,3.53557 -1.73163,6.40171 -3.8677,6.40171c-2.13607,0 -3.8677,-2.86614 -3.8677,-6.40171c0,-3.53557 1.73163,-6.40171 3.8677,-6.40171c2.13607,0 3.8677,2.86614 3.8677,6.40171z" fill="#cb0000"/><path d="M239.93331,169.01928c-3.3146,0 -6.00161,-1.94062 -6.00161,-4.33449c0,-2.39387 2.68701,-4.33449 6.00161,-4.33449c3.3146,0 6.00161,1.94062 6.00161,4.33449c0,2.39387 -2.68701,4.33449 -6.00161,4.33449z" fill="#cb0000"/><path d="M256.73781,178.82191c0,3.20411 -1.58235,5.80155 -3.53428,5.80155c-1.95193,0 -3.53428,-2.59744 -3.53428,-5.80155c0,-3.20411 1.58235,-5.80155 3.53428,-5.80155c1.95193,0 3.53428,2.59744 3.53428,5.80155z" fill="#cb0000"/><path d="M240.73353,193.22576c0,-2.98314 2.00033,-5.40145 4.46786,-5.40145c2.46753,0 4.46786,2.41831 4.46786,5.40145c0,2.98314 -2.00033,5.40145 -4.46786,5.40145c-2.46753,0 -4.46786,-2.41831 -4.46786,-5.40145z" fill="#cb0000"/><path d="M242.18477,180.1556c0,2.39387 -1.7878,4.33449 -3.99316,4.33449c-2.20536,0 -3.99316,-1.94062 -3.99316,-4.33449c0,-2.39387 1.7878,-4.33449 3.99316,-4.33449c2.20536,0 3.99316,1.94062 3.99316,4.33449z" fill="#cb0000"/><path d="M236.46572,195.02624c0,1.84144 -2.29889,3.33423 -5.13471,3.33423c-2.83582,0 -5.13471,-1.49278 -5.13471,-3.33423c0,-1.84144 2.29889,-3.33423 5.13471,-3.33423c2.83582,0 5.13471,1.49278 5.13471,3.33423z" fill="#cb0000"/><path d="M-18.5,400.05641v-440.11282h517v440.11282z" fill="none"/></g></g></svg>